# Blender 3.6.0
# www.blender.org
mtllib Tree_02.mtl
o Tree_02
v -0.143653 2.998859 -0.059004
v 0.866566 3.112386 0.508854
v -0.124465 3.594064 0.996678
v -0.848895 3.885106 -0.002871
v -0.305561 3.583290 -1.108446
v 0.754643 3.105727 -0.792173
v 0.785677 4.068800 0.915952
v -0.274527 4.546363 0.599679
v -0.386450 4.539704 -0.701348
v 0.604581 4.058027 -1.189172
v 1.329011 3.766985 -0.189623
v 0.623769 4.653232 -0.133490
v 0.288619 0.040974 0.290521
v -0.290941 0.040974 0.290521
v -0.290941 0.040974 -0.289039
v 0.288619 0.040974 -0.289039
v 0.155870 0.613297 0.158389
v -0.156379 0.653099 0.156576
v -0.158192 0.624596 -0.156907
v 0.154057 0.584793 -0.155094
v 0.299884 1.170905 0.050930
v -0.009785 1.173858 0.048647
v -0.007349 1.190207 -0.260603
v 0.302320 1.187253 -0.258320
v -0.053131 2.503953 0.617750
v -0.140914 2.503585 0.599532
v -0.124233 2.538033 0.518458
v -0.036450 2.538401 0.536676
v 0.018813 3.013388 0.702548
v 0.008794 3.013388 0.728694
v -0.000013 3.039753 0.725320
v 0.010006 3.039752 0.699173
v -0.129840 3.005802 0.805485
v -0.152791 3.005802 0.800768
v -0.151536 3.028388 0.794660
v 0.836018 2.789652 -0.362056
v 0.855575 2.787011 -0.320085
v 0.821714 2.813472 -0.302642
v 0.802156 2.816113 -0.344613
v 0.878916 2.878480 -0.354861
v 0.886923 2.876031 -0.335799
v 0.870662 2.886175 -0.327665
v 0.862655 2.888624 -0.346728
v 0.514723 3.100818 -0.145170
v 0.493415 3.100818 -0.129529
v 0.479271 3.112099 -0.148799
v 0.500579 3.112099 -0.164439
v 0.269156 3.007808 -0.295812
v 0.280500 3.007808 -0.324408
v 0.303280 3.026404 -0.315372
v 0.291937 3.026404 -0.286775
v -0.528777 2.199989 0.057885
v -0.502338 2.178384 -0.030999
v -0.433366 2.243865 -0.026399
v -0.459805 2.265470 0.062485
v -1.080137 2.760598 -0.289833
v -1.085829 2.760598 -0.307980
v -1.076339 2.776808 -0.310957
v -1.070647 2.776808 -0.292810
v -0.693664 3.249208 -0.441457
v -0.715127 3.249208 -0.453069
v -0.705000 3.261148 -0.471787
v -0.683537 3.261148 -0.460175
v -0.348792 3.244303 -0.572608
v -0.352649 3.244303 -0.541692
v -0.374785 3.266054 -0.544454
v -0.370927 3.266053 -0.575371
v -0.758479 2.805114 -0.135382
v -0.796591 2.806996 -0.129602
v -0.801223 2.821765 -0.164956
v -0.763112 2.819883 -0.170736
v -0.746327 2.997133 -0.149521
v -0.772086 2.999944 -0.145336
v -0.776398 2.998947 -0.171208
v -0.750639 2.996136 -0.175392
v 0.211068 0.379539 0.212970
v -0.213390 0.379539 0.212970
v -0.213390 0.379539 -0.211488
v 0.211068 0.379539 -0.211488
v 0.182447 1.534581 0.131400
v -0.065307 1.476413 0.119117
v -0.070068 1.548295 -0.125274
v 0.177687 1.606463 -0.112991
v -0.813894 2.553307 -0.327326
v -0.786025 2.527235 -0.374218
v -0.742202 2.568783 -0.371274
v -0.771710 2.606301 -0.324403
v 0.069141 1.856493 0.283375
v -0.121566 1.856492 0.244225
v -0.084635 1.945171 0.110071
v 0.108801 1.947694 0.114161
v -0.035724 2.409124 0.568801
v -0.137632 2.409124 0.547880
v -0.120024 2.465299 0.462105
v -0.018115 2.465299 0.483026
v -0.089595 2.922406 0.686941
v -0.142128 2.921949 0.675963
v -0.131506 2.933575 0.624655
v -0.078974 2.934032 0.635634
v -0.057873 2.975617 0.665667
v -0.072901 2.975617 0.704887
v -0.086112 3.015164 0.699825
v -0.071083 3.015164 0.660605
v -0.104686 2.973818 0.723956
v -0.143755 2.973818 0.715927
v -0.141618 3.012265 0.705528
v -0.102548 3.012265 0.713558
v 0.180849 1.826564 -0.112021
v 0.246903 1.826564 0.052805
v 0.049455 1.933772 -0.059364
v 0.318764 2.057530 -0.134038
v 0.361854 2.057530 -0.026515
v 0.276140 2.127467 0.007835
v 0.233050 2.127467 -0.099688
v 0.439812 2.248079 -0.176904
v 0.478399 2.248079 -0.102786
v 0.408317 2.298832 -0.067544
v 0.383404 2.302284 -0.147537
v 0.531724 2.373686 -0.219866
v 0.566306 2.373686 -0.153441
v 0.515754 2.422265 -0.127123
v 0.481172 2.422265 -0.193547
v 0.608567 2.478700 -0.255784
v 0.639800 2.478700 -0.195792
v 0.594143 2.522574 -0.172022
v 0.562910 2.522574 -0.232014
v 0.678073 2.573687 -0.288273
v 0.706277 2.573687 -0.234098
v 0.665048 2.613307 -0.212634
v 0.636844 2.613307 -0.266808
v 0.343243 2.273338 -0.166987
v 0.422478 2.273338 -0.138148
v 0.315408 2.295381 -0.090508
v 0.351644 2.350257 -0.183696
v 0.412883 2.362468 -0.151602
v 0.400386 2.371160 -0.083823
v 0.325248 2.371160 -0.111171
v 0.366221 2.483722 -0.212689
v 0.434252 2.483722 -0.187929
v 0.410352 2.502649 -0.122264
v 0.342322 2.502649 -0.147025
v 0.379309 2.603553 -0.238720
v 0.440958 2.603553 -0.216282
v 0.419300 2.620704 -0.156777
v 0.357652 2.620704 -0.179215
v 0.391515 2.715307 -0.262997
v 0.447212 2.715307 -0.242725
v 0.427645 2.730802 -0.188964
v 0.371948 2.730802 -0.209236
v 0.397375 2.768966 -0.274653
v 0.450215 2.768966 -0.255421
v 0.431652 2.783666 -0.204419
v 0.378813 2.783666 -0.223651
v 0.467646 2.876904 -0.227191
v 0.429276 2.876904 -0.199026
v 0.399817 2.892980 -0.235067
v 0.442175 2.897220 -0.261890
v 0.360444 2.859856 -0.250444
v 0.378064 2.859856 -0.294862
v 0.413448 2.888741 -0.280826
v -0.216517 1.799541 0.127394
v -0.204061 1.799541 -0.059886
v -0.068199 1.928727 -0.050850
v -0.874782 2.614216 -0.338922
v -0.889219 2.614216 -0.384956
v -0.865144 2.655338 -0.392506
v -0.840666 2.656155 -0.350354
v -1.059966 2.746219 -0.294655
v -1.066517 2.746219 -0.315541
v -1.055594 2.764876 -0.318967
v -1.049044 2.764876 -0.298081
v -0.793081 2.621572 -0.445317
v -0.749752 2.621572 -0.407275
v -0.779178 2.655940 -0.366184
v -0.824120 2.654908 -0.409964
v -0.656597 2.913250 -0.603979
v -0.610089 2.913250 -0.563147
v -0.643405 2.949033 -0.525199
v -0.689913 2.949033 -0.566032
v -0.631096 3.033106 -0.526415
v -0.678247 3.033106 -0.551925
v -0.656000 3.059337 -0.593048
v -0.603862 3.056798 -0.563580
v -0.551698 3.014781 -0.610722
v -0.558699 3.014781 -0.554608
v -0.591874 3.054259 -0.615735
v -0.826409 2.617747 -0.318217
v 0.343243 2.273338 -0.166987
v 0.315408 2.295381 -0.090508
v -0.271793 2.822028 0.788548
v 0.224769 3.102915 1.150625
v -0.458640 3.100153 1.375322
v -0.883547 3.108899 0.794866
v -0.462729 3.117064 0.211430
v 0.222241 3.113366 0.431306
v -0.080094 3.563385 1.380723
v -0.765064 3.567083 1.160847
v -0.767591 3.577535 0.441528
v -0.084183 3.580296 0.216831
v 0.340724 3.571551 0.797287
v -0.271030 3.858421 0.803605
v -0.682989 2.533299 -0.353757
v -0.056017 3.262046 0.191750
v -1.122010 3.071139 0.506914
v -1.730616 2.877883 -0.423569
v -1.040736 2.949358 -1.313798
v -0.005788 3.186782 -0.933502
v -0.716154 4.057027 0.459088
v -1.751103 3.819603 0.078792
v -1.700874 3.744339 -1.046460
v -0.634881 3.935246 -1.361624
v -0.026275 4.128502 -0.431140
v -1.073902 4.473086 -0.500952
v 0.523660 2.754899 -0.172439
v 0.997460 3.196851 0.069443
v 0.346232 3.347294 0.245224
v -0.026544 3.059103 -0.358233
v 0.394312 2.730548 -0.906967
v 1.027175 2.815684 -0.642644
v 0.740081 3.774200 0.033145
v 0.107218 3.689064 -0.231178
v 0.136934 3.307898 -0.943266
v 0.788162 3.157455 -1.119047
v 1.160937 3.445646 -0.515589
v 0.610734 3.749849 -0.701383
vn -0.1769 -0.8560 0.4858
vn 0.1143 -0.9934 -0.0047
vn -0.7222 -0.5968 0.3496
vn -0.7708 -0.5997 -0.2151
vn -0.2565 -0.8607 -0.4398
vn 0.7816 -0.6205 -0.0641
vn 0.2663 -0.3584 0.8948
vn -0.7847 0.1291 0.6063
vn -0.8768 0.1236 -0.4647
vn 0.1099 -0.3677 -0.9234
vn 0.8768 -0.1236 0.4647
vn -0.1099 0.3677 0.9234
vn -0.7816 0.6205 0.0641
vn -0.2663 0.3584 -0.8948
vn 0.7847 -0.1291 -0.6063
vn 0.7708 0.5997 0.2151
vn 0.2565 0.8607 0.4398
vn -0.1143 0.9934 0.0047
vn 0.1769 0.8560 -0.4858
vn 0.7222 0.5968 -0.3496
vn 0.6920 0.5552 0.4614
vn 0.9282 -0.0117 -0.3720
vn -0.0114 0.9970 -0.0761
vn -0.1897 -0.3322 0.9239
vn 0.0515 -0.4115 0.9100
vn 0.0486 0.0037 -0.9988
vn -0.1443 0.1765 -0.9737
vn -0.1461 0.2211 -0.9642
vn -0.0826 0.3559 -0.9309
vn -0.0503 0.9930 -0.1066
vn -0.7103 -0.6677 0.2228
vn -0.3693 0.5119 0.7756
vn 0.7032 0.1458 -0.6959
vn 0.9579 0.2843 0.0413
vn -0.0089 0.3377 -0.9412
vn -0.9853 -0.1692 -0.0228
vn 0.5825 0.2917 0.7587
vn -0.0035 -0.2218 0.9751
vn 0.9699 -0.2433 0.0057
vn -0.0054 -0.1731 -0.9849
vn -0.9648 0.2630 -0.0061
vn 0.0460 0.5124 -0.8575
vn 0.9688 0.2477 -0.0119
vn -0.7712 -0.0195 0.6363
vn 0.0153 0.2393 -0.9708
vn -0.9774 0.2114 -0.0058
vn 0.8792 0.3368 0.3369
vn 0.0091 0.2137 0.9769
vn 0.9748 0.2233 -0.0000
vn -0.1899 0.9708 -0.1465
vn -0.6091 0.4083 0.6799
vn -0.0000 0.2233 -0.9748
vn -0.9748 0.2233 -0.0000
vn -0.2895 -0.1123 -0.9506
vn -0.0000 0.2233 0.9748
vn 0.0995 0.9935 -0.0549
vn 0.6927 0.7160 0.0864
vn -0.2328 0.8721 0.4304
vn -0.8133 0.5230 0.2551
vn -0.5619 0.7966 -0.2229
vn 0.2526 0.9043 0.3441
vn 0.4179 0.5957 0.6860
vn 0.4920 0.8653 -0.0955
vn 0.7483 -0.5717 -0.3365
vn 0.4486 0.0652 0.8913
vn -0.1940 0.2662 0.9442
vn 0.0673 0.9972 -0.0331
vn -0.1988 0.9728 -0.1193
vn -0.5816 -0.6109 0.5372
vn 0.9364 -0.1177 0.3307
vn -0.8966 -0.4339 -0.0882
vn -0.0000 -1.0000 -0.0000
vn -0.6050 0.5030 0.6172
vn -0.1690 -0.0046 -0.9856
vn -0.2832 0.2355 0.9297
vn -0.5303 -0.6900 -0.4927
vn 0.4496 -0.1888 0.8730
vn -0.5065 0.0467 0.8610
vn 0.3791 -0.0983 -0.9201
vn -0.8075 0.1061 -0.5803
vn 0.7553 -0.5786 -0.3078
vn 0.5474 -0.4563 -0.7015
vn -0.5779 0.0199 0.8159
vn 0.7043 0.0083 -0.7098
vn -0.9090 -0.2894 -0.3001
vn -0.2383 0.5339 -0.8112
vn 0.7874 -0.1585 0.5957
vn 0.8843 0.3576 0.3002
vn -0.9859 0.0571 -0.1575
vn -0.1501 -0.1669 0.9745
vn -0.1587 -0.6064 0.7792
vn -0.4859 0.2655 -0.8327
vn -0.0006 0.9998 -0.0211
vn 0.8748 -0.4453 0.1907
vn 0.5138 -0.1747 0.8399
vn -0.0496 0.9985 0.0252
vn -0.7426 -0.6668 -0.0629
vn 0.4473 -0.4155 -0.7920
vn 0.7298 0.6837 0.0030
vn -0.4971 0.4181 0.7603
vn -0.1766 -0.4779 0.8605
vn -0.9781 0.0723 -0.1950
vn 0.0641 0.5761 -0.8149
vn 0.9670 0.0573 0.2484
vn -0.1767 -0.4769 0.8610
vn -0.9838 0.0641 -0.1674
vn 0.1590 0.6101 -0.7762
vn -0.1995 -0.1767 0.9638
vn -0.9811 0.0326 -0.1910
vn 0.1954 0.2577 -0.9463
vn 0.9746 0.0495 0.2182
vn 0.3799 -0.9135 0.1456
vn -0.2905 0.0254 0.9565
vn -0.2473 0.9643 -0.0948
vn 0.4231 0.0254 -0.9057
vn 0.6794 0.7201 0.1409
vn -0.0709 -0.9358 0.3452
vn -0.9931 0.0241 -0.1149
vn 0.4544 0.0883 0.8864
vn -0.6703 0.7120 0.2091
vn -0.3050 0.0918 -0.9479
vn 0.6903 -0.6280 -0.3594
vn 0.4692 0.0227 0.8828
vn -0.6673 0.6872 0.2873
vn -0.4462 0.0204 -0.8947
vn 0.4771 0.0204 0.8786
vn -0.6593 0.6689 0.3433
vn 0.6900 -0.6279 -0.3600
vn 0.4755 0.0225 0.8794
vn -0.6579 0.6694 0.3452
vn -0.4459 0.0202 -0.8949
vn 0.8354 -0.3683 -0.4080
vn 0.4540 -0.0010 0.8910
vn -0.7075 0.6023 0.3697
vn -0.3069 0.2258 -0.9246
vn 0.4085 -0.2804 -0.8686
vn 0.4045 -0.1606 -0.9003
vn -0.9369 0.0266 -0.3487
vn 0.9619 -0.0392 0.2705
vn -0.3275 0.2879 0.8999
vn 0.3325 -0.2347 -0.9134
vn 0.9418 0.0266 0.3351
vn -0.9369 0.0266 -0.3486
vn 0.5456 -0.3870 0.7433
vn -0.7774 0.0311 0.6282
vn -0.5118 0.4676 -0.7207
vn 0.8164 0.0394 -0.5762
vn -0.7663 -0.5660 -0.3040
vn 0.3417 0.0378 -0.9391
vn 0.7289 0.6524 0.2076
vn -0.3931 0.0387 0.9187
vn -0.7841 -0.6175 -0.0621
vn -0.0034 0.0734 -0.9973
vn 0.6514 0.7588 -0.0038
vn -0.0532 0.1105 0.9925
vn -0.5445 -0.8212 0.1708
vn -0.3451 0.0298 -0.9381
vn 0.4154 0.8836 -0.2159
vn 0.2620 0.0417 0.9642
vn 0.4519 0.8808 -0.1417
vn 0.2524 0.0298 0.9672
vn 0.5361 -0.5830 -0.6106
vn 0.7731 -0.0228 0.6339
vn -0.5583 0.5767 0.5964
vn -0.7537 -0.0048 -0.6572
vn 0.9822 -0.1715 -0.0764
vn -0.4284 -0.4353 0.7918
vn -0.8921 0.0531 -0.4488
vn 0.4250 0.5375 -0.7283
vn 0.8237 0.0249 0.5665
vn -0.8078 0.4189 -0.4147
vn 0.7384 -0.6681 0.0921
vn -0.1244 0.0510 0.9909
vn -0.6650 0.7318 -0.1492
vn 0.1522 0.0295 -0.9879
vn -0.0076 -0.6970 0.7171
vn -0.9717 -0.0530 0.2302
vn -0.1227 0.7593 -0.6391
vn 0.9920 0.0450 -0.1180
vn 0.1582 0.0614 0.9855
vn -0.9747 0.1402 0.1739
vn -0.1551 -0.0141 -0.9878
vn 0.9843 -0.0740 -0.1604
vn 0.1558 -0.8725 0.4632
vn 0.5002 -0.8658 -0.0143
vn -0.4048 -0.8694 0.2832
vn -0.4069 -0.8609 -0.3055
vn 0.1525 -0.8586 -0.4894
vn 0.9695 -0.2451 -0.0070
vn 0.3027 -0.2581 0.9175
vn -0.7826 -0.2522 0.5691
vn -0.7866 -0.2356 -0.5707
vn 0.2962 -0.2313 -0.9267
vn 0.7866 0.2356 0.5707
vn -0.2962 0.2313 0.9267
vn -0.9695 0.2451 0.0070
vn -0.3027 0.2581 -0.9175
vn 0.7826 0.2522 -0.5691
vn 0.4069 0.8609 0.3055
vn -0.1525 0.8586 0.4894
vn -0.5002 0.8658 0.0143
vn -0.1558 0.8725 -0.4632
vn 0.4048 0.8694 -0.2832
vn 0.3112 -0.7264 0.6127
vn 0.7261 -0.6832 0.0781
vn -0.3115 -0.8691 0.3842
vn -0.2813 -0.9143 -0.2914
vn 0.3601 -0.7996 -0.4807
vn 0.9990 -0.0021 0.0447
vn 0.2951 -0.0753 0.9525
vn -0.7620 -0.3176 0.5644
vn -0.7108 -0.3943 -0.5825
vn 0.3780 -0.1995 -0.9041
vn 0.7108 0.3943 0.5825
vn -0.3780 0.1995 0.9041
vn -0.9990 0.0021 -0.0447
vn -0.2951 0.0753 -0.9525
vn 0.7620 0.3176 -0.5644
vn 0.2813 0.9143 0.2914
vn -0.3601 0.7996 0.4807
vn -0.7261 0.6832 -0.0781
vn -0.3112 0.7264 -0.6127
vn 0.3115 0.8691 -0.3842
vn 0.0951 -0.5544 0.8268
vn 0.4905 -0.7596 0.4271
vn -0.5312 -0.5887 0.6093
vn -0.5107 -0.8516 0.1182
vn 0.1292 -0.9916 0.0101
vn 0.9571 -0.2369 0.1667
vn 0.2967 0.1911 0.9357
vn -0.8652 0.0840 0.4943
vn -0.8279 -0.3942 -0.3990
vn 0.3631 -0.6612 -0.6565
vn 0.8279 0.3942 0.3990
vn -0.3631 0.6612 0.6565
vn -0.9571 0.2369 -0.1667
vn -0.2967 -0.1911 -0.9357
vn 0.8652 -0.0840 -0.4943
vn 0.5107 0.8516 -0.1182
vn -0.1292 0.9916 -0.0101
vn -0.4905 0.7596 -0.4271
vn -0.0951 0.5544 -0.8268
vn 0.5312 0.5887 -0.6093
vn 0.0069 0.1941 0.9810
vn 0.7996 -0.5080 -0.3204
vt 0.795419 0.796301
vt 0.802414 0.808417
vt 0.788424 0.808417
vt 0.809409 0.796301
vt 0.816404 0.808417
vt 0.851379 0.796301
vt 0.858374 0.808417
vt 0.844384 0.808417
vt 0.837389 0.796301
vt 0.830394 0.808417
vt 0.823399 0.796301
vt 0.809409 0.820533
vt 0.795419 0.820533
vt 0.851379 0.820533
vt 0.837389 0.820533
vt 0.823399 0.820533
vt 0.781429 0.820533
vt 0.802414 0.832649
vt 0.788424 0.832649
vt 0.844384 0.832649
vt 0.830394 0.832649
vt 0.816404 0.832649
vt 0.777607 0.533990
s 0
usemtl Color_Tiles
f 1/1/1 2/2/1 3/3/1
f 2/2/2 1/4/2 6/5/2
f 1/6/3 3/7/3 4/8/3
f 1/9/4 4/8/4 5/10/4
f 1/11/5 5/10/5 6/5/5
f 2/2/6 6/5/6 11/12/6
f 3/3/7 2/2/7 7/13/7
f 4/8/8 3/7/8 8/14/8
f 5/10/9 4/8/9 9/15/9
f 6/5/10 5/10/10 10/16/10
f 2/2/11 11/12/11 7/13/11
f 3/3/12 7/13/12 8/17/12
f 4/8/13 8/14/13 9/15/13
f 5/10/14 9/15/14 10/16/14
f 6/5/15 10/16/15 11/12/15
f 7/13/16 11/12/16 12/18/16
f 8/17/17 7/13/17 12/19/17
f 9/15/18 8/14/18 12/20/18
f 10/16/19 9/15/19 12/21/19
f 11/12/20 10/16/20 12/22/20
f 91/23/21 88/23/21 109/23/21
f 83/23/22 108/23/22 109/23/22
f 110/23/23 90/23/23 91/23/23
f 89/23/24 81/23/24 88/23/24
f 81/23/25 80/23/25 88/23/25
f 82/23/26 108/23/26 83/23/26
f 82/23/27 162/23/27 108/23/27
f 162/23/28 163/23/28 108/23/28
f 163/23/29 110/23/29 108/23/29
f 163/23/30 90/23/30 110/23/30
f 164/23/31 165/23/31 84/23/31
f 167/23/32 164/23/32 187/23/32
f 100/23/33 99/23/33 103/23/33
f 21/23/34 24/23/34 83/23/34 80/23/34
f 24/23/35 23/23/35 82/23/35 83/23/35
f 23/23/36 22/23/36 81/23/36 82/23/36
f 107/23/37 101/23/37 102/23/37
f 22/23/38 21/23/38 80/23/38 81/23/38
f 17/23/39 20/23/39 24/23/39 21/23/39
f 20/23/40 19/23/40 23/23/40 24/23/40
f 19/23/41 18/23/41 22/23/41 23/23/41
f 118/23/42 115/23/42 131/23/42
f 20/23/43 17/23/43 76/23/43 79/23/43
f 161/23/44 81/23/44 89/23/44 90/23/44
f 19/23/45 20/23/45 79/23/45 78/23/45
f 18/23/46 19/23/46 78/23/46 77/23/46
f 32/23/47 31/23/47 30/23/47 29/23/47
f 17/23/48 18/23/48 77/23/48 76/23/48
f 79/23/49 76/23/49 13/23/49 16/23/49
f 160/23/50 156/23/50 157/23/50
f 156/23/51 158/23/51 155/23/51
f 78/23/52 79/23/52 16/23/52 15/23/52
f 77/23/53 78/23/53 15/23/53 14/23/53
f 131/23/54 115/23/54 111/23/54 114/23/54
f 76/23/55 77/23/55 14/23/55 13/23/55
f 75/23/56 74/23/56 73/23/56 72/23/56
f 67/23/57 66/23/57 65/23/57 64/23/57
f 63/23/58 62/23/58 61/23/58 60/23/58
f 59/23/59 58/23/59 57/23/59 56/23/59
f 51/23/60 50/23/60 49/23/60 48/23/60
f 47/23/61 46/23/61 45/23/61 44/23/61
f 183/23/62 180/23/62 185/23/62
f 43/23/63 42/23/63 41/23/63 40/23/63
f 116/23/64 112/23/64 111/23/64 115/23/64
f 117/23/65 113/23/65 112/23/65 116/23/65
f 35/23/66 34/23/66 33/23/66
f 182/23/67 183/23/67 186/23/67
f 189/23/68 133/23/68 117/23/68 118/23/68 188/23/68
f 118/23/69 188/23/69 132/23/69 117/23/69
f 80/23/70 83/23/70 109/23/70 88/23/70
f 162/23/71 82/23/71 81/23/71 161/23/71
f 13/23/72 14/23/72 15/23/72 16/23/72
f 117/23/73 133/23/73 114/23/73 113/23/73
f 182/23/74 186/23/74 184/23/74 176/23/74
f 189/23/75 117/23/75 136/23/75 137/23/75
f 165/23/76 172/23/76 85/23/76 84/23/76
f 180/23/77 178/23/77 177/23/77 185/23/77
f 153/23/78 152/23/78 155/23/78 158/23/78
f 159/23/79 160/23/79 151/23/79 150/23/79
f 181/23/80 182/23/80 176/23/80 179/23/80
f 177/23/81 176/23/81 184/23/81 185/23/81
f 173/23/82 86/23/82 85/23/82 172/23/82
f 181/23/83 179/23/83 178/23/83 180/23/83
f 151/23/84 160/23/84 157/23/84 154/23/84
f 150/23/85 153/23/85 158/23/85 159/23/85
f 98/23/86 106/23/86 103/23/86 99/23/86
f 152/23/87 151/23/87 154/23/87 155/23/87
f 174/23/88 87/23/88 86/23/88 173/23/88
f 97/23/89 105/23/89 106/23/89 98/23/89
f 187/23/90 164/23/90 84/23/90 87/23/90
f 104/23/91 105/23/91 97/23/91 96/23/91
f 166/23/92 175/23/92 172/23/92 165/23/92
f 174/23/93 175/23/93 166/23/93 167/23/93
f 101/23/94 96/23/94 99/23/94 100/23/94
f 107/23/95 104/23/95 96/23/95 101/23/95
f 107/23/96 102/23/96 103/23/96 106/23/96
f 53/23/97 52/23/97 84/23/97 85/23/97
f 54/23/98 53/23/98 85/23/98 86/23/98
f 55/23/99 54/23/99 86/23/99 87/23/99
f 52/23/100 55/23/100 87/23/100 84/23/100
f 89/23/101 88/23/101 92/23/101 93/23/101
f 90/23/102 89/23/102 93/23/102 94/23/102
f 91/23/103 90/23/103 94/23/103 95/23/103
f 88/23/104 91/23/104 95/23/104 28/23/104 25/23/104 92/23/104
f 25/23/105 26/23/105 93/23/105 92/23/105
f 26/23/106 27/23/106 94/23/106 93/23/106
f 27/23/107 28/23/107 95/23/107 94/23/107
f 26/23/108 25/23/108 96/23/108 97/23/108
f 27/23/109 26/23/109 97/23/109 98/23/109
f 28/23/110 27/23/110 98/23/110 99/23/110
f 25/23/111 28/23/111 99/23/111 96/23/111
f 101/23/112 100/23/112 29/23/112 30/23/112
f 102/23/113 101/23/113 30/23/113 31/23/113
f 103/23/114 102/23/114 31/23/114 32/23/114
f 100/23/115 103/23/115 32/23/115 29/23/115
f 104/23/116 107/23/116 106/23/116 35/23/116 33/23/116
f 105/23/117 104/23/117 33/23/117 34/23/117
f 106/23/118 105/23/118 34/23/118 35/23/118
f 112/23/119 113/23/119 91/23/119 109/23/119
f 113/23/120 114/23/120 110/23/120 91/23/120
f 114/23/121 111/23/121 108/23/121 110/23/121
f 119/23/122 120/23/122 116/23/122 115/23/122
f 120/23/123 121/23/123 117/23/123 116/23/123
f 121/23/124 122/23/124 118/23/124 117/23/124
f 122/23/125 119/23/125 115/23/125 118/23/125
f 123/23/122 124/23/122 120/23/122 119/23/122
f 124/23/126 125/23/126 121/23/126 120/23/126
f 125/23/127 126/23/127 122/23/127 121/23/127
f 126/23/125 123/23/125 119/23/125 122/23/125
f 127/23/122 128/23/122 124/23/122 123/23/122
f 128/23/126 129/23/126 125/23/126 124/23/126
f 129/23/127 130/23/127 126/23/127 125/23/127
f 130/23/125 127/23/125 123/23/125 126/23/125
f 128/23/128 127/23/128 36/23/128 37/23/128
f 129/23/129 128/23/129 37/23/129 38/23/129
f 130/23/130 129/23/130 38/23/130 39/23/130
f 127/23/131 130/23/131 39/23/131 36/23/131
f 37/23/132 36/23/132 40/23/132 41/23/132
f 38/23/133 37/23/133 41/23/133 42/23/133
f 39/23/134 38/23/134 42/23/134 43/23/134
f 36/23/135 39/23/135 43/23/135 40/23/135
f 138/23/136 139/23/136 135/23/136 134/23/136
f 134/23/137 135/23/137 132/23/137 188/23/137
f 137/23/138 134/23/138 188/23/138 189/23/138
f 139/23/139 140/23/139 136/23/139 135/23/139
f 140/23/140 141/23/140 137/23/140 136/23/140
f 141/23/138 138/23/138 134/23/138 137/23/138
f 142/23/141 143/23/141 139/23/141 138/23/141
f 143/23/142 144/23/142 140/23/142 139/23/142
f 144/23/140 145/23/140 141/23/140 140/23/140
f 145/23/138 142/23/138 138/23/138 141/23/138
f 146/23/141 147/23/141 143/23/141 142/23/141
f 147/23/142 148/23/142 144/23/142 143/23/142
f 148/23/140 149/23/140 145/23/140 144/23/140
f 149/23/138 146/23/138 142/23/138 145/23/138
f 150/23/141 151/23/141 147/23/141 146/23/141
f 151/23/142 152/23/142 148/23/142 147/23/142
f 152/23/140 153/23/140 149/23/140 148/23/140
f 153/23/143 150/23/143 146/23/143 149/23/143
f 155/23/144 154/23/144 44/23/144 45/23/144
f 156/23/145 155/23/145 45/23/145 46/23/145
f 157/23/146 156/23/146 46/23/146 47/23/146
f 154/23/147 157/23/147 47/23/147 44/23/147
f 159/23/148 158/23/148 48/23/148 49/23/148
f 160/23/149 159/23/149 49/23/149 50/23/149
f 156/23/150 160/23/150 50/23/150 51/23/150
f 158/23/151 156/23/151 51/23/151 48/23/151
f 162/23/152 161/23/152 52/23/152 53/23/152
f 163/23/153 162/23/153 53/23/153 54/23/153
f 90/23/154 163/23/154 54/23/154 55/23/154
f 161/23/155 90/23/155 55/23/155 52/23/155
f 165/23/156 164/23/156 168/23/156 169/23/156
f 166/23/157 165/23/157 169/23/157 170/23/157
f 167/23/158 166/23/158 170/23/158 171/23/158
f 164/23/159 167/23/159 171/23/159 168/23/159
f 56/23/156 57/23/156 169/23/156 168/23/156
f 57/23/157 58/23/157 170/23/157 169/23/157
f 58/23/160 59/23/160 171/23/160 170/23/160
f 59/23/161 56/23/161 168/23/161 171/23/161
f 173/23/162 172/23/162 176/23/162 177/23/162
f 174/23/163 173/23/163 177/23/163 178/23/163
f 175/23/164 174/23/164 178/23/164 179/23/164
f 172/23/165 175/23/165 179/23/165 176/23/165
f 118/23/166 135/23/166 136/23/166 117/23/166
f 181/23/167 180/23/167 60/23/167 61/23/167
f 182/23/168 181/23/168 61/23/168 62/23/168
f 183/23/169 182/23/169 62/23/169 63/23/169
f 180/23/170 183/23/170 63/23/170 60/23/170
f 118/23/171 131/23/171 114/23/171 133/23/171 189/23/171 188/23/171
f 185/23/172 184/23/172 64/23/172 65/23/172
f 183/23/173 185/23/173 65/23/173 66/23/173
f 186/23/174 183/23/174 66/23/174 67/23/174
f 184/23/175 186/23/175 67/23/175 64/23/175
f 187/23/176 87/23/176 68/23/176 69/23/176
f 167/23/177 187/23/177 69/23/177 70/23/177
f 174/23/178 167/23/178 70/23/178 71/23/178
f 87/23/179 174/23/179 71/23/179 68/23/179
f 69/23/180 68/23/180 72/23/180 73/23/180
f 70/23/181 69/23/181 73/23/181 74/23/181
f 71/23/182 70/23/182 74/23/182 75/23/182
f 68/23/183 71/23/183 75/23/183 72/23/183
f 190/1/184 191/2/184 192/3/184
f 191/2/185 190/4/185 195/5/185
f 190/6/186 192/7/186 193/8/186
f 190/9/187 193/8/187 194/10/187
f 190/11/188 194/10/188 195/5/188
f 191/2/189 195/5/189 200/12/189
f 192/3/190 191/2/190 196/13/190
f 193/8/191 192/7/191 197/14/191
f 194/10/192 193/8/192 198/15/192
f 195/5/193 194/10/193 199/16/193
f 191/2/194 200/12/194 196/13/194
f 192/3/195 196/13/195 197/17/195
f 193/8/196 197/14/196 198/15/196
f 194/10/197 198/15/197 199/16/197
f 195/5/198 199/16/198 200/12/198
f 196/13/199 200/12/199 201/18/199
f 197/17/200 196/13/200 201/19/200
f 198/15/201 197/14/201 201/20/201
f 199/16/202 198/15/202 201/21/202
f 200/12/203 199/16/203 201/22/203
f 202/1/204 203/2/204 204/3/204
f 203/2/205 202/4/205 207/5/205
f 202/6/206 204/7/206 205/8/206
f 202/9/207 205/8/207 206/10/207
f 202/11/208 206/10/208 207/5/208
f 203/2/209 207/5/209 212/12/209
f 204/3/210 203/2/210 208/13/210
f 205/8/211 204/7/211 209/14/211
f 206/10/212 205/8/212 210/15/212
f 207/5/213 206/10/213 211/16/213
f 203/2/214 212/12/214 208/13/214
f 204/3/215 208/13/215 209/17/215
f 205/8/216 209/14/216 210/15/216
f 206/10/217 210/15/217 211/16/217
f 207/5/218 211/16/218 212/12/218
f 208/13/219 212/12/219 213/18/219
f 209/17/220 208/13/220 213/19/220
f 210/15/221 209/14/221 213/20/221
f 211/16/222 210/15/222 213/21/222
f 212/12/223 211/16/223 213/22/223
f 214/1/224 215/2/224 216/3/224
f 215/2/225 214/4/225 219/5/225
f 214/6/226 216/7/226 217/8/226
f 214/9/227 217/8/227 218/10/227
f 214/11/228 218/10/228 219/5/228
f 215/2/229 219/5/229 224/12/229
f 216/3/230 215/2/230 220/13/230
f 217/8/231 216/7/231 221/14/231
f 218/10/232 217/8/232 222/15/232
f 219/5/233 218/10/233 223/16/233
f 215/2/234 224/12/234 220/13/234
f 216/3/235 220/13/235 221/17/235
f 217/8/236 221/14/236 222/15/236
f 218/10/237 222/15/237 223/16/237
f 219/5/238 223/16/238 224/12/238
f 220/13/239 224/12/239 225/18/239
f 221/17/240 220/13/240 225/19/240
f 222/15/241 221/14/241 225/20/241
f 223/16/242 222/15/242 225/21/242
f 224/12/243 223/16/243 225/22/243
f 18/23/244 17/23/244 21/23/244 22/23/244
f 111/23/245 112/23/245 109/23/245 108/23/245
