# Blender 3.6.0
# www.blender.org
mtllib Tree_04.mtl
o Tree_04
v 0.346770 0.000000 -0.194819
v 0.194819 0.000000 0.346770
v -0.346770 0.000000 0.194819
v -0.194819 0.000000 -0.346770
v 0.249429 0.527748 -0.140132
v 0.140132 0.527748 0.249429
v -0.249429 0.527748 0.140132
v -0.140132 0.527748 -0.249429
v 0.078302 3.263851 -0.043991
v 0.043991 3.263851 0.078302
v -0.078302 3.263851 0.043991
v -0.043991 3.263851 -0.078302
v 0.112725 2.653726 -0.063330
v 0.063330 2.653726 0.112725
v -0.112725 2.653726 0.063330
v -0.063330 2.653726 -0.112725
v 0.153441 1.949444 -0.086205
v 0.086205 1.949444 0.153441
v -0.153441 1.949444 0.086205
v -0.086205 1.949444 -0.153441
v 0.293127 0.290835 -0.164681
v 0.164681 0.290835 0.293127
v -0.293127 0.290835 0.164681
v -0.164681 0.290835 -0.293127
v 0.102091 2.842215 -0.057355
v 0.057355 2.842215 0.102091
v -0.102091 2.842215 0.057355
v -0.057355 2.842215 -0.102091
v 0.093592 2.992845 -0.052581
v 0.052581 2.992845 0.093592
v -0.093592 2.992845 0.052581
v -0.052581 2.992845 -0.093592
v 0.085748 3.131868 -0.048174
v 0.048174 3.131868 0.085748
v -0.085748 3.131868 0.048174
v -0.048174 3.131868 -0.085748
v 0.141207 2.161069 -0.079331
v 0.079331 2.161069 0.141207
v -0.141207 2.161069 0.079331
v -0.079331 2.161069 -0.141207
v 0.131122 2.335505 -0.073666
v 0.073666 2.335505 0.131122
v -0.131122 2.335505 0.073666
v -0.073666 2.335505 -0.131122
v 0.121716 2.498207 -0.068381
v 0.068381 2.498207 0.121716
v -0.121716 2.498207 0.068381
v -0.068381 2.498207 -0.121716
v 0.223263 0.915299 -0.125431
v 0.125431 0.915299 0.223263
v -0.223263 0.915299 0.125431
v -0.125431 0.915299 -0.223263
v 0.203631 1.206071 -0.114402
v 0.114402 1.206071 0.203631
v -0.203631 1.206071 0.114402
v -0.114402 1.206071 -0.203631
v 0.185888 1.468868 -0.104434
v 0.104434 1.468868 0.185888
v -0.185888 1.468868 0.104434
v -0.104434 1.468868 -0.185888
v 0.169270 1.715002 -0.095097
v 0.095097 1.715002 0.169270
v -0.169270 1.715002 0.095097
v -0.095097 1.715002 -0.169270
v -0.302158 1.094857 0.325860
v 0.174484 1.424431 0.189927
v 0.072890 1.266876 0.754850
v -0.514678 1.285448 0.848164
v -0.776212 1.454484 0.340901
v -0.350286 1.540378 -0.065905
v 0.256550 1.818711 0.628222
v -0.169376 1.732817 1.035028
v -0.694146 1.848764 0.779196
v -0.592552 2.006319 0.214273
v -0.004984 1.987747 0.120959
v -0.217503 2.178338 0.643263
v 0.520293 1.127779 0.092712
v 0.849461 1.544457 -0.033342
v 0.761702 1.414505 0.489411
v 0.239553 1.264107 0.540445
v 0.004613 1.301111 0.049224
v 0.381558 1.474376 -0.305390
v 0.772161 1.938308 0.336489
v 0.395216 1.765043 0.691103
v -0.072687 1.694963 0.419055
v 0.015072 1.824914 -0.103698
v 0.537221 1.975312 -0.154732
v 0.256481 2.111640 0.293001
v 0.230326 1.394073 -0.190058
v 0.182719 1.911515 -0.332406
v 0.043166 1.754687 0.163783
v -0.187598 1.269283 0.126243
v -0.190660 1.126123 -0.393155
v 0.038208 1.523044 -0.676609
v -0.264629 2.106525 -0.104078
v -0.493497 1.709604 0.179376
v -0.638008 1.321133 -0.164827
v -0.498455 1.477961 -0.661016
v -0.267691 1.963365 -0.623476
v -0.685615 1.838575 -0.307175
v 0.013578 1.760232 0.454984
v 0.368992 2.141860 0.311539
v 0.260877 2.055829 0.834457
v -0.266288 1.943712 0.879895
v -0.483971 1.960453 0.385050
v -0.091346 2.082915 0.033793
v 0.308787 2.561201 0.647799
v -0.083839 2.438740 0.999056
v -0.544177 2.379795 0.721310
v -0.436062 2.465826 0.198392
v 0.091104 2.577942 0.152954
v -0.188762 2.761423 0.577865
v 0.437527 1.837004 -0.575801
v 0.762099 2.147535 -0.224068
v 0.364444 1.798107 -0.011321
v -0.088994 1.815732 -0.357123
v 0.028432 2.176059 -0.783586
v 0.554434 2.381121 -0.701350
v 0.436174 2.318183 0.211998
v -0.089827 2.113122 0.129762
v -0.297492 2.346707 -0.347520
v 0.100162 2.696135 -0.560267
v 0.553600 2.678510 -0.214465
v 0.027079 2.657238 0.004213
v -0.265708 1.788482 -0.035989
v 0.049042 2.173338 -0.164779
v -0.097698 2.114174 0.323825
v -0.587894 1.960949 0.324877
v -0.744104 1.925418 -0.163086
v -0.350456 2.056682 -0.465704
v -0.078616 2.583663 0.116492
v -0.472265 2.452399 0.419110
v -0.871763 2.335742 0.118185
v -0.725023 2.394907 -0.370419
v -0.234827 2.548132 -0.371471
v -0.557013 2.720599 -0.010605
v 0.492952 1.810292 0.248871
v 0.753050 2.253033 0.238958
v 0.636849 2.033482 0.688471
v 0.169145 1.825337 0.647237
v -0.003704 1.916254 0.172233
v 0.357170 2.180583 -0.080092
v 0.589994 2.541710 0.631201
v 0.229121 2.277381 0.883525
v -0.166760 2.204932 0.564475
v -0.050559 2.424483 0.114962
v 0.417146 2.632627 0.156196
v 0.093339 2.647673 0.554562
v 0.290538 2.377339 0.074032
v 0.688228 2.638587 0.181666
v 0.385827 2.496912 0.537298
v -0.070533 2.524719 0.367126
v -0.050168 2.683583 -0.093682
v 0.418770 2.753956 -0.208298
v 0.572946 2.947430 0.541286
v 0.104007 2.877057 0.655901
v -0.165450 2.992425 0.265938
v 0.136950 3.134101 -0.089694
v 0.593311 3.106294 0.080478
v 0.232240 3.253675 0.373572
v -0.042632 2.478436 -0.095367
v 0.078448 2.933458 -0.066326
v -0.127139 2.720186 0.300820
v -0.451469 2.421510 0.133027
v -0.446321 2.450198 -0.337825
v -0.118815 2.766597 -0.461027
v -0.255558 3.157754 0.180018
v -0.583063 2.841355 0.303220
v -0.780327 2.674495 -0.091480
v -0.574739 2.887767 -0.458626
v -0.250410 3.186442 -0.290834
v -0.659247 3.129517 -0.062440
v 0.186906 2.644671 0.412773
v 0.292489 3.032740 0.421876
v 0.141825 2.857505 0.751148
v -0.145540 2.601044 0.635049
v -0.172471 2.617784 0.234020
v 0.098245 2.884585 0.102276
v 0.025297 3.228955 0.649780
v -0.245420 2.962153 0.781523
v -0.439663 2.813998 0.461924
v -0.288999 2.989233 0.132652
v -0.001634 3.245694 0.248751
v -0.334081 3.202067 0.471027
v 0.330571 2.652303 -0.351139
v 0.450158 3.044313 -0.390635
v 0.314091 2.906183 -0.027403
v 0.005334 2.643303 -0.098799
v -0.049415 2.618968 -0.506163
v 0.225501 2.866806 -0.686522
v 0.198831 3.277591 -0.162702
v -0.076085 3.029753 0.017657
v -0.300742 2.852246 -0.278230
v -0.164675 2.990376 -0.641463
v 0.144082 3.253256 -0.570066
v -0.181155 3.244256 -0.317726
v 0.195405 2.901827 0.031498
v 0.329747 3.297134 -0.027369
v 0.209493 3.170276 0.356331
v -0.120454 2.911762 0.310635
v -0.204113 2.878855 -0.101312
v 0.074126 3.117027 -0.310206
v 0.096916 3.551386 0.215389
v -0.181323 3.313213 0.424283
v -0.436943 3.133106 0.141446
v -0.316689 3.259964 -0.242254
v 0.013258 3.518478 -0.196559
v -0.302601 3.528413 0.082579
v 0.269794 3.389785 0.045309
v 0.316814 3.575434 -0.178010
v 0.310804 3.676242 0.098304
v 0.103273 3.527796 0.244741
v -0.018976 3.335244 0.058924
v 0.113001 3.364687 -0.202348
v 0.179353 3.828186 -0.116598
v 0.047377 3.798742 0.144674
v -0.156437 3.587996 0.120336
v -0.150426 3.487188 -0.155978
v 0.057105 3.635633 -0.302415
v -0.109417 3.773645 -0.102983
vn -0.0000 -1.0000 -0.0000
vn -0.0000 1.0000 -0.0000
vn 0.9522 0.1480 0.2672
vn -0.2672 0.1480 0.9522
vn -0.9522 0.1480 -0.2672
vn 0.2672 0.1480 -0.9522
vn 0.9618 0.0457 0.2699
vn -0.2699 0.0457 0.9618
vn -0.9618 0.0457 -0.2699
vn 0.2699 0.0457 -0.9618
vn 0.9618 0.0468 0.2698
vn -0.2698 0.0468 0.9618
vn -0.9618 0.0468 -0.2698
vn 0.2698 0.0468 -0.9618
vn 0.9614 0.0547 0.2697
vn -0.2697 0.0547 0.9614
vn -0.9614 0.0547 -0.2697
vn 0.2697 0.0547 -0.9614
vn 0.5370 -0.8326 -0.1356
vn 0.2234 -0.6299 -0.7438
vn 0.0263 -0.9356 0.3521
vn -0.6028 -0.7966 0.0454
vn -0.4810 -0.6077 -0.6319
vn 0.4436 0.0317 -0.8956
vn 0.9510 -0.2962 0.0884
vn 0.1247 -0.4629 0.8776
vn -0.8933 -0.2379 0.3813
vn -0.6962 0.0677 -0.7146
vn 0.8933 0.2379 -0.3813
vn 0.6962 -0.0677 0.7146
vn -0.4436 -0.0317 0.8956
vn -0.9510 0.2962 -0.0884
vn -0.1247 0.4629 -0.8776
vn 0.6028 0.7966 -0.0454
vn 0.4810 0.6077 0.6319
vn -0.2234 0.6299 0.7438
vn -0.5370 0.8326 0.1356
vn -0.0263 0.9356 -0.3521
vn 0.7809 -0.6242 -0.0241
vn 0.4737 -0.5758 -0.6664
vn 0.2880 -0.8507 0.4396
vn -0.3238 -0.9424 0.0839
vn -0.2091 -0.7725 -0.5997
vn 0.4874 0.1091 -0.8664
vn 0.9845 0.0308 0.1729
vn 0.1869 -0.3357 0.9232
vn -0.8030 -0.4840 0.3476
vn -0.6174 -0.2091 -0.7584
vn 0.8030 0.4840 -0.3476
vn 0.6174 0.2091 0.7584
vn -0.4874 -0.1091 0.8664
vn -0.9845 -0.0308 -0.1729
vn -0.1869 0.3357 -0.9232
vn 0.3238 0.9424 -0.0839
vn 0.2091 0.7725 0.5997
vn -0.4737 0.5758 0.6664
vn -0.7809 0.6242 0.0241
vn -0.2880 0.8507 -0.4396
vn 0.9325 0.1730 0.3170
vn 0.9285 -0.0166 -0.3710
vn 0.6294 -0.3528 0.6924
vn 0.4380 -0.8673 0.2365
vn 0.6228 -0.6596 -0.4208
vn 0.5208 0.4494 -0.7258
vn 0.5274 0.7562 0.3873
vn 0.0368 -0.0945 0.9948
vn -0.2729 -0.9270 0.2571
vn 0.0262 -0.5909 -0.8063
vn 0.2729 0.9270 -0.2571
vn -0.0262 0.5909 0.8063
vn -0.5208 -0.4494 0.7258
vn -0.5274 -0.7562 -0.3873
vn -0.0368 0.0945 -0.9948
vn -0.4380 0.8673 -0.2365
vn -0.6228 0.6596 0.4208
vn -0.9285 0.0166 0.3710
vn -0.9325 -0.1730 -0.3170
vn -0.6294 0.3528 -0.6924
vn 0.7390 -0.6724 0.0422
vn 0.4518 -0.6503 -0.6107
vn 0.2210 -0.8340 0.5056
vn -0.3865 -0.9117 0.1392
vn -0.2438 -0.7982 -0.5508
vn 0.5150 0.0165 -0.8570
vn 0.9797 -0.0192 0.1994
vn 0.1415 -0.2807 0.9493
vn -0.8413 -0.4065 0.3563
vn -0.6105 -0.2229 -0.7601
vn 0.8413 0.4065 -0.3563
vn 0.6105 0.2229 0.7601
vn -0.5150 -0.0165 0.8570
vn -0.9797 0.0192 -0.1994
vn -0.1415 0.2807 -0.9493
vn 0.3865 0.9117 -0.1392
vn 0.2438 0.7982 0.5508
vn -0.4518 0.6503 0.6107
vn -0.7390 0.6724 -0.0422
vn -0.2210 0.8340 -0.5056
vn 0.6704 -0.7412 0.0357
vn 0.8173 -0.2904 -0.4977
vn 0.0124 -0.9977 -0.0671
vn -0.2473 -0.7055 -0.6642
vn 0.2501 -0.2684 -0.9303
vn 0.9070 0.3601 -0.2184
vn 0.6693 -0.3692 0.6447
vn -0.3953 -0.7842 0.4783
vn -0.8156 -0.3114 -0.4877
vn -0.0107 0.3958 -0.9183
vn 0.8156 0.3114 0.4877
vn 0.0107 -0.3958 0.9183
vn -0.9070 -0.3601 0.2184
vn -0.6693 0.3692 -0.6447
vn 0.3953 0.7842 -0.4783
vn 0.2473 0.7055 0.6642
vn -0.2501 0.2684 0.9303
vn -0.8173 0.2904 0.4977
vn -0.6704 0.7412 -0.0357
vn -0.0124 0.9977 0.0671
vn 0.7898 -0.5905 0.1657
vn 0.5728 -0.6399 -0.5123
vn 0.2429 -0.7729 0.5862
vn -0.3123 -0.9350 0.1681
vn -0.1084 -0.8528 -0.5109
vn 0.5993 0.0125 -0.8004
vn 0.9505 0.0924 0.2966
vn 0.0655 -0.2027 0.9770
vn -0.8328 -0.4650 0.3004
vn -0.5028 -0.3320 -0.7981
vn 0.8328 0.4650 -0.3004
vn 0.5028 0.3320 0.7981
vn -0.5993 -0.0125 0.8004
vn -0.9505 -0.0924 -0.2966
vn -0.0655 0.2027 -0.9770
vn 0.3123 0.9350 -0.1681
vn 0.1084 0.8528 0.5109
vn -0.5728 0.6399 0.5123
vn -0.7898 0.5905 -0.1657
vn -0.2429 0.7729 -0.5862
vn 0.8617 -0.5068 -0.0248
vn 0.6215 -0.3805 -0.6848
vn 0.3603 -0.8741 0.3259
vn -0.1898 -0.9748 -0.1175
vn -0.0284 -0.6697 -0.7421
vn 0.5564 0.3257 -0.7644
vn 0.9451 0.1213 0.3036
vn 0.1337 -0.4730 0.8709
vn -0.7564 -0.6359 0.1535
vn -0.4951 -0.1422 -0.8571
vn 0.7564 0.6359 -0.1535
vn 0.4951 0.1422 0.8571
vn -0.5564 -0.3257 0.7644
vn -0.9451 -0.1213 -0.3036
vn -0.1337 0.4730 -0.8709
vn 0.1898 0.9748 0.1175
vn 0.0284 0.6697 0.7421
vn -0.6215 0.3805 0.6848
vn -0.8617 0.5068 0.0248
vn -0.3603 0.8741 -0.3259
vn 0.5248 -0.8441 0.1099
vn 0.5545 -0.6117 -0.5642
vn -0.1612 -0.9471 0.2776
vn -0.5554 -0.7783 -0.2929
vn -0.1130 -0.5710 -0.8131
vn 0.8283 0.0473 -0.5583
vn 0.7801 -0.3287 0.5324
vn -0.3299 -0.4953 0.8037
vn -0.9677 -0.2222 -0.1194
vn -0.2519 0.1131 -0.9611
vn 0.9677 0.2222 0.1194
vn 0.2519 -0.1131 0.9611
vn -0.8283 -0.0473 0.5583
vn -0.7801 0.3287 -0.5324
vn 0.3299 0.4953 -0.8037
vn 0.5554 0.7783 0.2929
vn 0.1130 0.5710 0.8131
vn -0.5545 0.6117 0.5642
vn -0.5248 0.8441 -0.1099
vn 0.1612 0.9471 -0.2776
vn 0.8989 -0.2616 0.3514
vn 0.9067 -0.2182 -0.3609
vn 0.4035 -0.7403 0.5378
vn 0.1051 -0.9927 -0.0593
vn 0.4161 -0.6701 -0.6147
vn 0.7125 0.4437 -0.5436
vn 0.6999 0.3735 0.6089
vn -0.1018 -0.4010 0.9104
vn -0.5846 -0.8094 -0.0557
vn -0.0814 -0.2874 -0.9544
vn 0.5846 0.8094 0.0557
vn 0.0814 0.2874 0.9544
vn -0.7125 -0.4437 0.5436
vn -0.6999 -0.3735 -0.6089
vn 0.1018 0.4010 -0.9104
vn -0.1051 0.9927 0.0593
vn -0.4161 0.6701 0.6147
vn -0.9067 0.2182 0.3609
vn -0.8989 0.2616 -0.3514
vn -0.4035 0.7403 -0.5378
vn 0.9231 -0.2579 0.2852
vn 0.8754 -0.2282 -0.4263
vn 0.4429 -0.7312 0.5189
vn 0.0983 -0.9940 -0.0481
vn 0.3656 -0.6831 -0.6322
vn 0.6686 0.4308 -0.6061
vn 0.7460 0.3828 0.5450
vn -0.0311 -0.3831 0.9232
vn -0.5887 -0.8083 0.0058
vn -0.1562 -0.3053 -0.9393
vn 0.5887 0.8083 -0.0058
vn 0.1562 0.3053 0.9393
vn -0.6686 -0.4308 0.6061
vn -0.7460 -0.3828 -0.5450
vn 0.0311 0.3831 -0.9232
vn -0.0983 0.9940 0.0481
vn -0.3656 0.6831 0.6322
vn -0.8754 0.2282 0.4263
vn -0.9231 0.2579 -0.2852
vn -0.4429 0.7312 -0.5189
vn 0.9327 -0.2593 0.2508
vn 0.8378 -0.3014 -0.4553
vn 0.4562 -0.6888 0.5634
vn 0.0668 -0.9965 0.0505
vn 0.3026 -0.7571 -0.5790
vn 0.6380 0.3423 -0.6898
vn 0.7916 0.4105 0.4526
vn 0.0206 -0.2845 0.9585
vn -0.6095 -0.7823 0.1286
vn -0.2279 -0.3949 -0.8900
vn 0.6095 0.7823 -0.1286
vn 0.2279 0.3949 0.8900
vn -0.6380 -0.3423 0.6898
vn -0.7916 -0.4105 -0.4526
vn -0.0206 0.2845 -0.9585
vn -0.0668 0.9965 -0.0505
vn -0.3026 0.7571 0.5790
vn -0.8378 0.3014 0.4553
vn -0.9327 0.2593 -0.2508
vn -0.4562 0.6888 -0.5634
vn 0.9367 -0.2888 0.1981
vn 0.7951 -0.3445 -0.4992
vn 0.4657 -0.6919 0.5516
vn 0.0331 -0.9968 0.0729
vn 0.2366 -0.7821 -0.5765
vn 0.6045 0.3005 -0.7377
vn 0.8336 0.3906 0.3904
vn 0.0717 -0.2616 0.9625
vn -0.6284 -0.7549 0.1879
vn -0.2990 -0.4074 -0.8629
vn 0.6284 0.7549 -0.1879
vn 0.2990 0.4074 0.8629
vn -0.6045 -0.3005 0.7377
vn -0.8336 -0.3906 -0.3904
vn -0.0717 0.2616 -0.9625
vn -0.0331 0.9968 -0.0729
vn -0.2366 0.7821 0.5765
vn -0.7951 0.3445 0.4992
vn -0.9367 0.2888 -0.1981
vn -0.4657 0.6919 -0.5516
vn 0.9848 -0.1554 0.0781
vn 0.6882 -0.6225 -0.3726
vn 0.6646 -0.2269 0.7119
vn 0.1702 -0.7381 0.6529
vn 0.1848 -0.9826 -0.0174
vn 0.3693 -0.2540 -0.8939
vn 0.8492 0.5018 -0.1646
vn 0.3312 0.3863 0.8609
vn -0.4688 -0.4409 0.7654
vn -0.4452 -0.8366 -0.3192
vn 0.4688 0.4409 -0.7654
vn 0.4452 0.8366 0.3192
vn -0.3693 0.2540 0.8939
vn -0.8492 -0.5018 0.1646
vn -0.3312 -0.3863 -0.8609
vn -0.1702 0.7381 -0.6529
vn -0.1848 0.9826 0.0174
vn -0.6882 0.6225 0.3726
vn -0.9848 0.1554 -0.0781
vn -0.6646 0.2269 -0.7119
vt 0.844049 0.563519
vt 0.652638 0.162646
vt 0.661055 0.177225
vt 0.644221 0.177225
vt 0.669472 0.162646
vt 0.677889 0.177225
vt 0.719975 0.162646
vt 0.728392 0.177225
vt 0.711558 0.177225
vt 0.703141 0.162646
vt 0.694724 0.177225
vt 0.686307 0.162646
vt 0.669472 0.191804
vt 0.652638 0.191804
vt 0.719975 0.191804
vt 0.703141 0.191804
vt 0.686307 0.191804
vt 0.635804 0.191804
vt 0.661055 0.206383
vt 0.644221 0.206383
vt 0.711558 0.206383
vt 0.694724 0.206383
vt 0.677889 0.206383
s 0
usemtl Color_Tiles
f 1/1/1 2/1/1 3/1/1 4/1/1
f 12/1/2 11/1/2 10/1/2 9/1/2
f 21/1/3 22/1/3 2/1/3 1/1/3
f 22/1/4 23/1/4 3/1/4 2/1/4
f 23/1/5 24/1/5 4/1/5 3/1/5
f 24/1/6 21/1/6 1/1/6 4/1/6
f 5/1/3 6/1/3 22/1/3 21/1/3
f 6/1/4 7/1/4 23/1/4 22/1/4
f 7/1/5 8/1/5 24/1/5 23/1/5
f 8/1/6 5/1/6 21/1/6 24/1/6
f 25/1/7 26/1/7 14/1/7 13/1/7
f 26/1/8 27/1/8 15/1/8 14/1/8
f 27/1/9 28/1/9 16/1/9 15/1/9
f 28/1/10 25/1/10 13/1/10 16/1/10
f 29/1/7 30/1/7 26/1/7 25/1/7
f 30/1/8 31/1/8 27/1/8 26/1/8
f 31/1/9 32/1/9 28/1/9 27/1/9
f 32/1/10 29/1/10 25/1/10 28/1/10
f 33/1/7 34/1/7 30/1/7 29/1/7
f 34/1/8 35/1/8 31/1/8 30/1/8
f 35/1/9 36/1/9 32/1/9 31/1/9
f 36/1/10 33/1/10 29/1/10 32/1/10
f 9/1/7 10/1/7 34/1/7 33/1/7
f 10/1/8 11/1/8 35/1/8 34/1/8
f 11/1/9 12/1/9 36/1/9 35/1/9
f 12/1/10 9/1/10 33/1/10 36/1/10
f 37/1/11 38/1/11 18/1/11 17/1/11
f 38/1/12 39/1/12 19/1/12 18/1/12
f 39/1/13 40/1/13 20/1/13 19/1/13
f 40/1/14 37/1/14 17/1/14 20/1/14
f 41/1/11 42/1/11 38/1/11 37/1/11
f 42/1/12 43/1/12 39/1/12 38/1/12
f 43/1/13 44/1/13 40/1/13 39/1/13
f 44/1/14 41/1/14 37/1/14 40/1/14
f 45/1/11 46/1/11 42/1/11 41/1/11
f 46/1/12 47/1/12 43/1/12 42/1/12
f 47/1/13 48/1/13 44/1/13 43/1/13
f 48/1/14 45/1/14 41/1/14 44/1/14
f 13/1/11 14/1/11 46/1/11 45/1/11
f 14/1/12 15/1/12 47/1/12 46/1/12
f 15/1/13 16/1/13 48/1/13 47/1/13
f 16/1/14 13/1/14 45/1/14 48/1/14
f 49/1/15 50/1/15 6/1/15 5/1/15
f 50/1/16 51/1/16 7/1/16 6/1/16
f 51/1/17 52/1/17 8/1/17 7/1/17
f 52/1/18 49/1/18 5/1/18 8/1/18
f 53/1/15 54/1/15 50/1/15 49/1/15
f 54/1/16 55/1/16 51/1/16 50/1/16
f 55/1/17 56/1/17 52/1/17 51/1/17
f 56/1/18 53/1/18 49/1/18 52/1/18
f 57/1/15 58/1/15 54/1/15 53/1/15
f 58/1/16 59/1/16 55/1/16 54/1/16
f 59/1/17 60/1/17 56/1/17 55/1/17
f 60/1/18 57/1/18 53/1/18 56/1/18
f 61/1/15 62/1/15 58/1/15 57/1/15
f 62/1/16 63/1/16 59/1/16 58/1/16
f 63/1/17 64/1/17 60/1/17 59/1/17
f 64/1/18 61/1/18 57/1/18 60/1/18
f 17/1/15 18/1/15 62/1/15 61/1/15
f 18/1/16 19/1/16 63/1/16 62/1/16
f 19/1/17 20/1/17 64/1/17 63/1/17
f 20/1/18 17/1/18 61/1/18 64/1/18
f 65/2/19 66/3/19 67/4/19
f 66/3/20 65/5/20 70/6/20
f 65/7/21 67/8/21 68/9/21
f 65/10/22 68/9/22 69/11/22
f 65/12/23 69/11/23 70/6/23
f 66/3/24 70/6/24 75/13/24
f 67/4/25 66/3/25 71/14/25
f 68/9/26 67/8/26 72/15/26
f 69/11/27 68/9/27 73/16/27
f 70/6/28 69/11/28 74/17/28
f 66/3/29 75/13/29 71/14/29
f 67/4/30 71/14/30 72/18/30
f 68/9/31 72/15/31 73/16/31
f 69/11/32 73/16/32 74/17/32
f 70/6/33 74/17/33 75/13/33
f 71/14/34 75/13/34 76/19/34
f 72/18/35 71/14/35 76/20/35
f 73/16/36 72/15/36 76/21/36
f 74/17/37 73/16/37 76/22/37
f 75/13/38 74/17/38 76/23/38
f 77/2/39 78/3/39 79/4/39
f 78/3/40 77/5/40 82/6/40
f 77/7/41 79/8/41 80/9/41
f 77/10/42 80/9/42 81/11/42
f 77/12/43 81/11/43 82/6/43
f 78/3/44 82/6/44 87/13/44
f 79/4/45 78/3/45 83/14/45
f 80/9/46 79/8/46 84/15/46
f 81/11/47 80/9/47 85/16/47
f 82/6/48 81/11/48 86/17/48
f 78/3/49 87/13/49 83/14/49
f 79/4/50 83/14/50 84/18/50
f 80/9/51 84/15/51 85/16/51
f 81/11/52 85/16/52 86/17/52
f 82/6/53 86/17/53 87/13/53
f 83/14/54 87/13/54 88/19/54
f 84/18/55 83/14/55 88/20/55
f 85/16/56 84/15/56 88/21/56
f 86/17/57 85/16/57 88/22/57
f 87/13/58 86/17/58 88/23/58
f 89/2/59 90/3/59 91/4/59
f 90/3/60 89/5/60 94/6/60
f 89/7/61 91/8/61 92/9/61
f 89/10/62 92/9/62 93/11/62
f 89/12/63 93/11/63 94/6/63
f 90/3/64 94/6/64 99/13/64
f 91/4/65 90/3/65 95/14/65
f 92/9/66 91/8/66 96/15/66
f 93/11/67 92/9/67 97/16/67
f 94/6/68 93/11/68 98/17/68
f 90/3/69 99/13/69 95/14/69
f 91/4/70 95/14/70 96/18/70
f 92/9/71 96/15/71 97/16/71
f 93/11/72 97/16/72 98/17/72
f 94/6/73 98/17/73 99/13/73
f 95/14/74 99/13/74 100/19/74
f 96/18/75 95/14/75 100/20/75
f 97/16/76 96/15/76 100/21/76
f 98/17/77 97/16/77 100/22/77
f 99/13/78 98/17/78 100/23/78
f 101/2/79 102/3/79 103/4/79
f 102/3/80 101/5/80 106/6/80
f 101/7/81 103/8/81 104/9/81
f 101/10/82 104/9/82 105/11/82
f 101/12/83 105/11/83 106/6/83
f 102/3/84 106/6/84 111/13/84
f 103/4/85 102/3/85 107/14/85
f 104/9/86 103/8/86 108/15/86
f 105/11/87 104/9/87 109/16/87
f 106/6/88 105/11/88 110/17/88
f 102/3/89 111/13/89 107/14/89
f 103/4/90 107/14/90 108/18/90
f 104/9/91 108/15/91 109/16/91
f 105/11/92 109/16/92 110/17/92
f 106/6/93 110/17/93 111/13/93
f 107/14/94 111/13/94 112/19/94
f 108/18/95 107/14/95 112/20/95
f 109/16/96 108/15/96 112/21/96
f 110/17/97 109/16/97 112/22/97
f 111/13/98 110/17/98 112/23/98
f 113/2/99 114/3/99 115/4/99
f 114/3/100 113/5/100 118/6/100
f 113/7/101 115/8/101 116/9/101
f 113/10/102 116/9/102 117/11/102
f 113/12/103 117/11/103 118/6/103
f 114/3/104 118/6/104 123/13/104
f 115/4/105 114/3/105 119/14/105
f 116/9/106 115/8/106 120/15/106
f 117/11/107 116/9/107 121/16/107
f 118/6/108 117/11/108 122/17/108
f 114/3/109 123/13/109 119/14/109
f 115/4/110 119/14/110 120/18/110
f 116/9/111 120/15/111 121/16/111
f 117/11/112 121/16/112 122/17/112
f 118/6/113 122/17/113 123/13/113
f 119/14/114 123/13/114 124/19/114
f 120/18/115 119/14/115 124/20/115
f 121/16/116 120/15/116 124/21/116
f 122/17/117 121/16/117 124/22/117
f 123/13/118 122/17/118 124/23/118
f 125/2/119 126/3/119 127/4/119
f 126/3/120 125/5/120 130/6/120
f 125/7/121 127/8/121 128/9/121
f 125/10/122 128/9/122 129/11/122
f 125/12/123 129/11/123 130/6/123
f 126/3/124 130/6/124 135/13/124
f 127/4/125 126/3/125 131/14/125
f 128/9/126 127/8/126 132/15/126
f 129/11/127 128/9/127 133/16/127
f 130/6/128 129/11/128 134/17/128
f 126/3/129 135/13/129 131/14/129
f 127/4/130 131/14/130 132/18/130
f 128/9/131 132/15/131 133/16/131
f 129/11/132 133/16/132 134/17/132
f 130/6/133 134/17/133 135/13/133
f 131/14/134 135/13/134 136/19/134
f 132/18/135 131/14/135 136/20/135
f 133/16/136 132/15/136 136/21/136
f 134/17/137 133/16/137 136/22/137
f 135/13/138 134/17/138 136/23/138
f 137/2/139 138/3/139 139/4/139
f 138/3/140 137/5/140 142/6/140
f 137/7/141 139/8/141 140/9/141
f 137/10/142 140/9/142 141/11/142
f 137/12/143 141/11/143 142/6/143
f 138/3/144 142/6/144 147/13/144
f 139/4/145 138/3/145 143/14/145
f 140/9/146 139/8/146 144/15/146
f 141/11/147 140/9/147 145/16/147
f 142/6/148 141/11/148 146/17/148
f 138/3/149 147/13/149 143/14/149
f 139/4/150 143/14/150 144/18/150
f 140/9/151 144/15/151 145/16/151
f 141/11/152 145/16/152 146/17/152
f 142/6/153 146/17/153 147/13/153
f 143/14/154 147/13/154 148/19/154
f 144/18/155 143/14/155 148/20/155
f 145/16/156 144/15/156 148/21/156
f 146/17/157 145/16/157 148/22/157
f 147/13/158 146/17/158 148/23/158
f 149/2/159 150/3/159 151/4/159
f 150/3/160 149/5/160 154/6/160
f 149/7/161 151/8/161 152/9/161
f 149/10/162 152/9/162 153/11/162
f 149/12/163 153/11/163 154/6/163
f 150/3/164 154/6/164 159/13/164
f 151/4/165 150/3/165 155/14/165
f 152/9/166 151/8/166 156/15/166
f 153/11/167 152/9/167 157/16/167
f 154/6/168 153/11/168 158/17/168
f 150/3/169 159/13/169 155/14/169
f 151/4/170 155/14/170 156/18/170
f 152/9/171 156/15/171 157/16/171
f 153/11/172 157/16/172 158/17/172
f 154/6/173 158/17/173 159/13/173
f 155/14/174 159/13/174 160/19/174
f 156/18/175 155/14/175 160/20/175
f 157/16/176 156/15/176 160/21/176
f 158/17/177 157/16/177 160/22/177
f 159/13/178 158/17/178 160/23/178
f 161/2/179 162/3/179 163/4/179
f 162/3/180 161/5/180 166/6/180
f 161/7/181 163/8/181 164/9/181
f 161/10/182 164/9/182 165/11/182
f 161/12/183 165/11/183 166/6/183
f 162/3/184 166/6/184 171/13/184
f 163/4/185 162/3/185 167/14/185
f 164/9/186 163/8/186 168/15/186
f 165/11/187 164/9/187 169/16/187
f 166/6/188 165/11/188 170/17/188
f 162/3/189 171/13/189 167/14/189
f 163/4/190 167/14/190 168/18/190
f 164/9/191 168/15/191 169/16/191
f 165/11/192 169/16/192 170/17/192
f 166/6/193 170/17/193 171/13/193
f 167/14/194 171/13/194 172/19/194
f 168/18/195 167/14/195 172/20/195
f 169/16/196 168/15/196 172/21/196
f 170/17/197 169/16/197 172/22/197
f 171/13/198 170/17/198 172/23/198
f 173/2/199 174/3/199 175/4/199
f 174/3/200 173/5/200 178/6/200
f 173/7/201 175/8/201 176/9/201
f 173/10/202 176/9/202 177/11/202
f 173/12/203 177/11/203 178/6/203
f 174/3/204 178/6/204 183/13/204
f 175/4/205 174/3/205 179/14/205
f 176/9/206 175/8/206 180/15/206
f 177/11/207 176/9/207 181/16/207
f 178/6/208 177/11/208 182/17/208
f 174/3/209 183/13/209 179/14/209
f 175/4/210 179/14/210 180/18/210
f 176/9/211 180/15/211 181/16/211
f 177/11/212 181/16/212 182/17/212
f 178/6/213 182/17/213 183/13/213
f 179/14/214 183/13/214 184/19/214
f 180/18/215 179/14/215 184/20/215
f 181/16/216 180/15/216 184/21/216
f 182/17/217 181/16/217 184/22/217
f 183/13/218 182/17/218 184/23/218
f 185/2/219 186/3/219 187/4/219
f 186/3/220 185/5/220 190/6/220
f 185/7/221 187/8/221 188/9/221
f 185/10/222 188/9/222 189/11/222
f 185/12/223 189/11/223 190/6/223
f 186/3/224 190/6/224 195/13/224
f 187/4/225 186/3/225 191/14/225
f 188/9/226 187/8/226 192/15/226
f 189/11/227 188/9/227 193/16/227
f 190/6/228 189/11/228 194/17/228
f 186/3/229 195/13/229 191/14/229
f 187/4/230 191/14/230 192/18/230
f 188/9/231 192/15/231 193/16/231
f 189/11/232 193/16/232 194/17/232
f 190/6/233 194/17/233 195/13/233
f 191/14/234 195/13/234 196/19/234
f 192/18/235 191/14/235 196/20/235
f 193/16/236 192/15/236 196/21/236
f 194/17/237 193/16/237 196/22/237
f 195/13/238 194/17/238 196/23/238
f 197/2/239 198/3/239 199/4/239
f 198/3/240 197/5/240 202/6/240
f 197/7/241 199/8/241 200/9/241
f 197/10/242 200/9/242 201/11/242
f 197/12/243 201/11/243 202/6/243
f 198/3/244 202/6/244 207/13/244
f 199/4/245 198/3/245 203/14/245
f 200/9/246 199/8/246 204/15/246
f 201/11/247 200/9/247 205/16/247
f 202/6/248 201/11/248 206/17/248
f 198/3/249 207/13/249 203/14/249
f 199/4/250 203/14/250 204/18/250
f 200/9/251 204/15/251 205/16/251
f 201/11/252 205/16/252 206/17/252
f 202/6/253 206/17/253 207/13/253
f 203/14/254 207/13/254 208/19/254
f 204/18/255 203/14/255 208/20/255
f 205/16/256 204/15/256 208/21/256
f 206/17/257 205/16/257 208/22/257
f 207/13/258 206/17/258 208/23/258
f 209/2/259 210/3/259 211/4/259
f 210/3/260 209/5/260 214/6/260
f 209/7/261 211/8/261 212/9/261
f 209/10/262 212/9/262 213/11/262
f 209/12/263 213/11/263 214/6/263
f 210/3/264 214/6/264 219/13/264
f 211/4/265 210/3/265 215/14/265
f 212/9/266 211/8/266 216/15/266
f 213/11/267 212/9/267 217/16/267
f 214/6/268 213/11/268 218/17/268
f 210/3/269 219/13/269 215/14/269
f 211/4/270 215/14/270 216/18/270
f 212/9/271 216/15/271 217/16/271
f 213/11/272 217/16/272 218/17/272
f 214/6/273 218/17/273 219/13/273
f 215/14/274 219/13/274 220/19/274
f 216/18/275 215/14/275 220/20/275
f 217/16/276 216/15/276 220/21/276
f 218/17/277 217/16/277 220/22/277
f 219/13/278 218/17/278 220/23/278
