# Blender 3.6.0
# www.blender.org
mtllib Tree_03.mtl
o Tree_03
v 0.308017 0.000000 0.308017
v -0.308017 0.000000 0.308017
v -0.308017 0.000000 -0.308017
v 0.308017 0.000000 -0.308017
v 0.221554 0.577972 0.221554
v -0.221554 0.577972 0.221554
v -0.221554 0.577972 -0.221554
v 0.221554 0.577972 -0.221554
v 0.069551 3.574463 0.069551
v -0.069551 3.574463 0.069551
v -0.069551 3.574463 -0.069551
v 0.069551 3.574463 -0.069551
v 0.100128 2.906274 0.100128
v -0.100128 2.906274 0.100128
v -0.100128 2.906274 -0.100128
v 0.100128 2.906274 -0.100128
v 0.136293 2.134968 0.136293
v -0.136293 2.134968 0.136293
v -0.136293 2.134968 -0.136293
v 0.136293 2.134968 -0.136293
v 0.260368 0.318513 0.260368
v -0.260368 0.318513 0.260368
v -0.260368 0.318513 -0.260368
v 0.260368 0.318513 -0.260368
v 0.083133 3.277667 0.083133
v -0.083133 3.277667 0.083133
v -0.083133 3.277667 -0.083133
v 0.083133 3.277667 -0.083133
v 0.116469 2.557769 0.116469
v -0.116469 2.557769 0.116469
v -0.116469 2.557769 -0.116469
v 0.116469 2.557769 -0.116469
v 0.198312 1.002406 0.198312
v -0.198312 1.002406 0.198312
v -0.198312 1.002406 -0.198312
v 0.198312 1.002406 -0.198312
v 0.165114 1.608657 0.165114
v -0.165114 1.608657 0.165114
v -0.165114 1.608657 -0.165114
v 0.165114 1.608657 -0.165114
v -0.392178 1.137740 -0.091593
v -0.083153 1.649442 0.308912
v -0.763526 1.453772 0.437522
v -1.080169 1.321429 -0.194908
v -0.595475 1.435312 -0.714376
v 0.020708 1.638034 -0.402995
v -0.580157 2.149384 0.453127
v -1.196340 1.946663 0.141745
v -1.092479 1.935254 -0.570162
v -0.412106 2.130924 -0.698772
v -0.095463 2.263267 -0.066342
v -0.783454 2.446956 -0.169657
v 0.103572 1.087904 0.244105
v 0.423033 1.399266 0.851255
v -0.297869 1.181601 0.874739
v -0.608286 1.331537 0.204814
v -0.079216 1.641871 -0.232699
v 0.558167 1.683726 0.166826
v -0.091388 1.835333 1.187209
v -0.728771 1.793478 0.787683
v -0.593637 2.077938 0.103255
v 0.127265 2.295603 0.079771
v 0.437682 2.145667 0.749696
v -0.274175 2.389300 0.710405
v 0.341385 1.137099 -0.011588
v 0.512059 1.787280 0.328659
v -0.208367 1.582036 0.248096
v -0.281035 1.245504 -0.422057
v 0.394494 1.242768 -0.755662
v 0.884645 1.577602 -0.291692
v -0.004881 2.297524 0.128478
v -0.495031 1.962689 -0.335492
v -0.122446 1.753012 -0.955843
v 0.597981 1.958256 -0.875280
v 0.670648 2.294787 -0.205127
v 0.048229 2.403193 -0.615596
v -0.387355 1.926087 0.100484
v -0.198073 2.356793 0.490111
v -0.777793 2.164850 0.505075
v -0.957823 2.063025 -0.069702
v -0.489356 2.192043 -0.439892
v -0.019810 2.373600 -0.093907
v -0.651561 2.759925 0.560730
v -1.121106 2.578369 0.214745
v -0.942844 2.595175 -0.369273
v -0.363123 2.787119 -0.384237
v -0.183093 2.888943 0.190540
v -0.753562 3.025881 0.020354
v 0.551885 2.019372 0.514035
v 0.537744 2.612496 0.709987
v 0.003888 2.306314 0.602099
v 0.088457 1.940937 0.102354
v 0.674589 2.021313 -0.098608
v 0.952257 2.436357 0.276930
v 0.065573 2.900635 0.419413
v -0.212095 2.485591 0.043875
v 0.202418 2.309452 -0.389183
v 0.736274 2.615633 -0.281294
v 0.651705 2.981010 0.218450
v 0.188277 2.902575 -0.193230
v 0.101292 2.020074 -0.228137
v 0.184433 2.522304 0.011058
v -0.329516 2.293814 0.008152
v -0.399689 2.030045 -0.483648
v 0.070900 2.095524 -0.784685
v 0.431902 2.399755 -0.478938
v -0.265166 2.842674 -0.096619
v -0.626168 2.538443 -0.402366
v -0.378699 2.415894 -0.892362
v 0.135251 2.644384 -0.889456
v 0.205424 2.908153 -0.397656
v -0.295557 2.918124 -0.653167
v -0.116586 1.982572 0.593421
v -0.029185 2.467448 0.864749
v -0.537552 2.227003 0.875206
v -0.632440 1.999050 0.369836
v -0.182707 2.098619 0.047048
v 0.190120 2.388103 0.352924
v -0.491024 2.783598 0.808857
v -0.863851 2.494114 0.502982
v -0.644547 2.414769 -0.008844
v -0.136179 2.655214 -0.019301
v -0.041291 2.883167 0.486070
v -0.557146 2.899645 0.262485
v 0.007891 2.603584 0.328260
v 0.012050 2.889695 0.779448
v -0.452410 2.734536 0.565792
v -0.407984 2.764990 0.034238
v 0.083941 2.938972 -0.080615
v 0.343530 3.016042 0.379950
v -0.401257 3.227929 0.764279
v -0.660846 3.150859 0.303715
v -0.329366 3.277207 -0.095783
v 0.135094 3.432365 0.117872
v 0.090667 3.401912 0.649426
v -0.325207 3.563318 0.355405
v 0.087947 2.714302 -0.073167
v 0.093146 3.212627 0.063097
v -0.354813 2.979059 -0.045067
v -0.273835 2.651959 -0.436697
v 0.224179 2.683377 -0.570567
v 0.450980 3.029887 -0.261677
v -0.265425 3.458270 -0.216216
v -0.492227 3.111759 -0.525106
v -0.134393 2.929019 -0.849881
v 0.313566 3.162588 -0.741717
v 0.232588 3.489687 -0.350086
v -0.129194 3.427345 -0.713617
v -0.264543 2.881667 0.318862
v -0.241864 3.327123 0.438375
v -0.652495 3.125974 0.373962
v -0.613289 2.831588 0.020365
v -0.178421 2.850803 -0.133752
v 0.051127 3.157059 0.124593
v -0.576596 3.552354 0.213742
v -0.806144 3.246098 -0.044603
v -0.513153 3.076034 -0.358385
v -0.102523 3.277183 -0.293971
v -0.141728 3.571569 0.059626
v -0.490474 3.521490 -0.238871
v 0.468057 2.904716 0.244689
v 0.545082 3.334032 0.359103
v 0.121816 3.182757 0.323087
v 0.105757 2.894859 -0.023604
v 0.519105 2.868209 -0.201850
v 0.790618 3.139632 0.034677
v 0.230384 3.589510 0.161523
v -0.041128 3.318087 -0.075004
v 0.204408 3.123687 -0.399430
v 0.627673 3.274962 -0.363414
v 0.643732 3.562860 -0.016723
v 0.281433 3.553003 -0.285016
v 0.024597 3.177986 0.215363
v 0.126413 3.610914 0.339605
v -0.313757 3.471983 0.326318
v -0.363186 3.188867 -0.035114
v 0.046443 3.152828 -0.245200
v 0.349027 3.413666 -0.013610
v -0.198445 3.889362 0.165915
v -0.501029 3.628523 -0.065675
v -0.278415 3.431276 -0.418890
v 0.161755 3.570206 -0.405603
v 0.211184 3.853322 -0.044171
v -0.176599 3.864203 -0.294648
v -0.008782 3.715156 0.303820
v 0.089723 4.019288 0.343891
v -0.224638 3.949274 0.352811
v -0.281998 3.720663 0.133146
v -0.003081 3.649390 -0.011533
v 0.226652 3.833951 0.118715
v -0.122613 4.212760 0.197982
v -0.352347 4.028200 0.067734
v -0.215418 3.842864 -0.157442
v 0.098943 3.912877 -0.166362
v 0.156304 4.141489 0.053304
v -0.116912 4.146996 -0.117371
vn -0.0000 -1.0000 -0.0000
vn -0.0000 1.0000 -0.0000
vn -0.0000 0.1480 0.9890
vn -0.9890 0.1480 -0.0000
vn -0.0000 0.1480 -0.9890
vn 0.9890 0.1480 -0.0000
vn -0.9990 0.0457 -0.0000
vn -0.0000 0.0457 -0.9990
vn 0.9990 0.0457 -0.0000
vn -0.0000 0.0457 0.9990
vn -0.0000 0.0468 0.9989
vn -0.9989 0.0468 -0.0000
vn -0.0000 0.0468 -0.9989
vn 0.9989 0.0468 -0.0000
vn -0.0000 0.0547 0.9985
vn -0.9985 0.0547 -0.0000
vn -0.0000 0.0547 -0.9985
vn 0.9985 0.0547 -0.0000
vn 0.3216 -0.6964 0.6416
vn 0.8023 -0.5834 0.1264
vn -0.2896 -0.8974 0.3328
vn -0.1866 -0.9088 -0.3733
vn 0.4882 -0.7147 -0.5009
vn 0.9841 0.1065 0.1419
vn 0.2063 -0.0763 0.9755
vn -0.7825 -0.4016 0.4758
vn -0.6158 -0.4199 -0.6667
vn 0.4760 -0.1059 -0.8730
vn 0.6158 0.4199 0.6667
vn -0.4760 0.1059 0.8730
vn -0.9841 -0.1065 -0.1419
vn -0.2063 0.0763 -0.9755
vn 0.7825 0.4016 -0.4758
vn 0.1866 0.9088 0.3733
vn -0.4882 0.7147 0.5009
vn -0.8023 0.5834 -0.1264
vn -0.3216 0.6964 -0.6416
vn 0.2896 0.8974 -0.3328
vn 0.2837 -0.9056 0.3152
vn 0.7848 -0.6117 -0.0993
vn -0.3200 -0.9453 -0.0633
vn -0.1920 -0.6758 -0.7116
vn 0.4908 -0.4697 -0.7338
vn 0.9804 0.0075 0.1967
vn 0.1696 -0.4681 0.8673
vn -0.8073 -0.5322 0.2549
vn -0.6002 -0.0963 -0.7941
vn 0.5047 0.2373 -0.8300
vn 0.6002 0.0963 0.7941
vn -0.5047 -0.2373 0.8300
vn -0.9804 -0.0075 -0.1967
vn -0.1696 0.4681 -0.8673
vn 0.8073 0.5322 -0.2549
vn 0.1920 0.6758 0.7116
vn -0.4908 0.4697 0.7338
vn -0.7848 0.6117 0.0993
vn -0.2837 0.9056 -0.3152
vn 0.3200 0.9453 0.0633
vn 0.0355 -0.4707 0.8816
vn 0.6754 -0.4733 0.5656
vn -0.4288 -0.7878 0.4421
vn -0.0759 -0.9864 -0.1455
vn 0.6065 -0.7920 -0.0692
vn 0.8681 0.2044 0.4523
vn -0.1672 0.2086 0.9636
vn -0.9184 -0.3045 0.2525
vn -0.3474 -0.6259 -0.6983
vn 0.7568 -0.3113 -0.5748
vn 0.3474 0.6259 0.6983
vn -0.7568 0.3113 0.5748
vn -0.8681 -0.2044 -0.4523
vn 0.1672 -0.2086 -0.9636
vn 0.9184 0.3045 -0.2525
vn 0.0759 0.9864 0.1455
vn -0.6065 0.7920 0.0692
vn -0.6754 0.4733 -0.5656
vn -0.0355 0.4707 -0.8816
vn 0.4288 0.7878 -0.4421
vn 0.2514 -0.7077 0.6602
vn 0.7987 -0.5570 0.2278
vn -0.2972 -0.9198 0.2560
vn -0.0889 -0.9002 -0.4263
vn 0.5883 -0.6760 -0.4437
vn 0.9461 0.1382 0.2928
vn 0.0606 -0.1057 0.9926
vn -0.8270 -0.4489 0.3385
vn -0.4900 -0.4171 -0.7655
vn 0.6058 -0.0543 -0.7937
vn 0.4900 0.4171 0.7655
vn -0.6058 0.0543 0.7937
vn -0.9461 -0.1382 -0.2928
vn -0.0606 0.1057 -0.9926
vn 0.8270 0.4489 -0.3385
vn 0.0889 0.9002 0.4263
vn -0.5883 0.6760 0.4437
vn -0.7987 0.5570 -0.2278
vn -0.2514 0.7077 -0.6602
vn 0.2972 0.9198 -0.2560
vn -0.0118 -0.3139 0.9494
vn 0.6576 -0.2221 0.7198
vn -0.3290 -0.7880 0.5204
vn 0.1445 -0.9892 0.0258
vn 0.7542 -0.6395 0.1490
vn 0.7281 0.4567 0.5112
vn -0.3551 0.3081 0.8826
vn -0.8683 -0.4589 0.1886
vn -0.1022 -0.7844 -0.6118
vn 0.8844 -0.2186 -0.4124
vn 0.1022 0.7844 0.6118
vn -0.8844 0.2186 0.4124
vn -0.7281 -0.4567 -0.5112
vn 0.3551 -0.3081 -0.8826
vn 0.8683 0.4589 -0.1886
vn -0.1445 0.9892 -0.0258
vn -0.7542 0.6395 -0.1490
vn -0.6576 0.2221 -0.7198
vn 0.0118 0.3139 -0.9494
vn 0.3290 0.7880 -0.5204
vn 0.1942 -0.4478 0.8728
vn 0.7912 -0.3647 0.4908
vn -0.2639 -0.8338 0.4849
vn 0.0501 -0.9893 -0.1369
vn 0.7022 -0.6994 -0.1332
vn 0.8729 0.3316 0.3579
vn -0.0932 0.1972 0.9759
vn -0.8343 -0.4273 0.3482
vn -0.3263 -0.6789 -0.6577
vn 0.7288 -0.2099 -0.6517
vn 0.3263 0.6789 0.6577
vn -0.7288 0.2099 0.6517
vn -0.8729 -0.3316 -0.3579
vn 0.0932 -0.1972 -0.9759
vn 0.8343 0.4273 -0.3482
vn -0.0501 0.9893 0.1369
vn -0.7022 0.6994 0.1332
vn -0.7912 0.3647 -0.4908
vn -0.1942 0.4478 -0.8728
vn 0.2639 0.8338 -0.4849
vn 0.2566 -0.5068 0.8230
vn 0.8272 -0.3805 0.4134
vn -0.2164 -0.8741 0.4349
vn 0.0618 -0.9748 -0.2145
vn 0.7069 -0.6697 -0.2278
vn 0.8863 0.3257 0.3293
vn -0.0370 0.1213 0.9919
vn -0.8024 -0.4730 0.3640
vn -0.3522 -0.6359 -0.6868
vn 0.6915 -0.1422 -0.7082
vn 0.3522 0.6359 0.6868
vn -0.6915 0.1422 0.7082
vn -0.8863 -0.3257 -0.3293
vn 0.0370 -0.1213 -0.9919
vn 0.8024 0.4730 -0.3640
vn -0.0618 0.9748 0.2145
vn -0.7069 0.6697 0.2278
vn -0.8272 0.3805 -0.4134
vn -0.2566 0.5068 -0.8230
vn 0.2164 0.8741 -0.4349
vn 0.0359 -0.8441 0.5349
vn 0.6930 -0.6117 0.3815
vn -0.3108 -0.9471 -0.0802
vn 0.1319 -0.7783 -0.6139
vn 0.7523 -0.5710 -0.3285
vn 0.7613 0.0473 0.6467
vn -0.3018 -0.3287 0.8949
vn -0.8629 -0.4953 -0.1005
vn -0.1465 -0.2222 -0.9639
vn 0.8573 0.1131 -0.5022
vn 0.1465 0.2222 0.9639
vn -0.8573 -0.1131 0.5022
vn -0.7613 -0.0473 -0.6467
vn 0.3018 0.3287 -0.8949
vn 0.8629 0.4953 0.1005
vn -0.1319 0.7783 0.6139
vn -0.7523 0.5710 0.3285
vn -0.6930 0.6117 -0.3815
vn -0.0359 0.8441 -0.5349
vn 0.3108 0.9471 0.0802
vn -0.0955 -0.2616 0.9604
vn 0.5924 -0.2182 0.7755
vn -0.4088 -0.7403 0.5338
vn 0.0855 -0.9927 0.0851
vn 0.7043 -0.6701 0.2346
vn 0.7159 0.4437 0.5391
vn -0.3972 0.3735 0.8383
vn -0.9041 -0.4010 0.1480
vn -0.1043 -0.8094 -0.5779
vn 0.8969 -0.2874 -0.3362
vn 0.1043 0.8094 0.5779
vn -0.8969 0.2874 0.3362
vn -0.7159 -0.4437 -0.5391
vn 0.3972 -0.3735 -0.8383
vn 0.9041 0.4010 -0.1480
vn -0.0855 0.9927 -0.0851
vn -0.7043 0.6701 -0.2346
vn -0.5924 0.2182 -0.7755
vn 0.0955 0.2616 -0.9604
vn 0.4088 0.7403 -0.5338
vn -0.0252 -0.2579 0.9659
vn 0.6469 -0.2282 0.7277
vn -0.3800 -0.7312 0.5666
vn 0.0729 -0.9940 0.0816
vn 0.7075 -0.6831 0.1812
vn 0.7642 0.4308 0.4801
vn -0.3233 0.3828 0.8655
vn -0.8973 -0.3831 0.2194
vn -0.1646 -0.8083 -0.5652
vn 0.8622 -0.3053 -0.4041
vn 0.1646 0.8083 0.5652
vn -0.8622 0.3053 0.4041
vn -0.7642 -0.4308 -0.4801
vn 0.3233 -0.3828 -0.8655
vn 0.8973 0.3831 -0.2194
vn -0.0729 0.9940 -0.0816
vn -0.7075 0.6831 -0.1812
vn -0.6469 0.2282 -0.7277
vn 0.0252 0.2579 -0.9659
vn 0.3800 0.7312 -0.5666
vn 0.0105 -0.2593 0.9658
vn 0.6646 -0.3014 0.6837
vn -0.4192 -0.6888 0.5914
vn -0.0306 -0.9965 0.0780
vn 0.6392 -0.7571 0.1350
vn 0.8365 0.3423 0.4280
vn -0.2220 0.4105 0.8844
vn -0.9173 -0.2845 0.2787
vn -0.2885 -0.7823 -0.5521
vn 0.7954 -0.3949 -0.4598
vn 0.2885 0.7823 0.5521
vn -0.7954 0.3949 0.4598
vn -0.8365 -0.3423 -0.4280
vn 0.2220 -0.4105 -0.8844
vn 0.9173 0.2845 -0.2787
vn 0.0306 0.9965 -0.0780
vn -0.6392 0.7571 -0.1350
vn -0.6646 0.3014 -0.6837
vn -0.0105 0.2593 -0.9658
vn 0.4192 0.6888 -0.5914
vn 0.0623 -0.2888 0.9554
vn 0.6954 -0.3445 0.6307
vn -0.4053 -0.6919 0.5974
vn -0.0613 -0.9968 0.0515
vn 0.6190 -0.7821 0.0721
vn 0.8736 0.3005 0.3828
vn -0.1507 0.3906 0.9081
vn -0.9074 -0.2616 0.3290
vn -0.3507 -0.7549 -0.5543
vn 0.7500 -0.4074 -0.5210
vn 0.3507 0.7549 0.5543
vn -0.7500 0.4074 0.5210
vn -0.8736 -0.3005 -0.3828
vn 0.1507 -0.3906 -0.9081
vn 0.9074 0.2616 -0.3290
vn 0.0613 0.9968 -0.0515
vn -0.6190 0.7821 -0.0721
vn -0.6954 0.3445 -0.6307
vn -0.0623 0.2888 -0.9554
vn 0.4053 0.6919 -0.5974
vn 0.0614 -0.1499 0.9868
vn 0.6792 -0.3078 0.6663
vn -0.4475 -0.5587 0.6983
vn -0.1442 -0.9692 0.1995
vn 0.5521 -0.8141 0.1798
vn 0.9052 0.2758 0.3234
vn -0.0944 0.5313 0.8419
vn -0.9178 -0.1302 0.3751
vn -0.4270 -0.7944 -0.4319
vn 0.6996 -0.5435 -0.4639
vn 0.4270 0.7944 0.4319
vn -0.6996 0.5435 0.4639
vn -0.9052 -0.2758 -0.3234
vn 0.0944 -0.5313 -0.8419
vn 0.9178 0.1302 -0.3751
vn 0.1442 0.9692 -0.1995
vn -0.5521 0.8141 -0.1798
vn -0.6792 0.3078 -0.6663
vn -0.0614 0.1499 -0.9868
vn 0.4475 0.5587 -0.6983
vt 0.826823 0.526608
vt 0.679642 0.161330
vt 0.686672 0.173505
vt 0.672613 0.173505
vt 0.693701 0.161330
vt 0.700730 0.173505
vt 0.735877 0.161330
vt 0.742906 0.173505
vt 0.728848 0.173505
vt 0.721818 0.161330
vt 0.714789 0.173505
vt 0.707760 0.161330
vt 0.693701 0.185681
vt 0.679642 0.185681
vt 0.735877 0.185681
vt 0.721818 0.185681
vt 0.707760 0.185681
vt 0.665583 0.185681
vt 0.686672 0.197856
vt 0.672613 0.197856
vt 0.728848 0.197856
vt 0.714789 0.197856
vt 0.700730 0.197856
s 0
usemtl Color_Tiles
f 1/1/1 2/1/1 3/1/1 4/1/1
f 12/1/2 11/1/2 10/1/2 9/1/2
f 21/1/3 22/1/3 2/1/3 1/1/3
f 22/1/4 23/1/4 3/1/4 2/1/4
f 23/1/5 24/1/5 4/1/5 3/1/5
f 24/1/6 21/1/6 1/1/6 4/1/6
f 5/1/3 6/1/3 22/1/3 21/1/3
f 6/1/4 7/1/4 23/1/4 22/1/4
f 7/1/5 8/1/5 24/1/5 23/1/5
f 8/1/6 5/1/6 21/1/6 24/1/6
f 26/1/7 27/1/7 15/1/7 14/1/7
f 27/1/8 28/1/8 16/1/8 15/1/8
f 28/1/9 25/1/9 13/1/9 16/1/9
f 9/1/10 10/1/10 26/1/10 25/1/10
f 10/1/7 11/1/7 27/1/7 26/1/7
f 11/1/8 12/1/8 28/1/8 27/1/8
f 12/1/9 9/1/9 25/1/9 28/1/9
f 29/1/11 30/1/11 18/1/11 17/1/11
f 30/1/12 31/1/12 19/1/12 18/1/12
f 31/1/13 32/1/13 20/1/13 19/1/13
f 32/1/14 29/1/14 17/1/14 20/1/14
f 13/1/11 14/1/11 30/1/11 29/1/11
f 14/1/12 15/1/12 31/1/12 30/1/12
f 15/1/13 16/1/13 32/1/13 31/1/13
f 16/1/14 13/1/14 29/1/14 32/1/14
f 37/1/15 38/1/15 34/1/15 33/1/15
f 33/1/15 34/1/15 6/1/15 5/1/15
f 34/1/16 35/1/16 7/1/16 6/1/16
f 35/1/17 36/1/17 8/1/17 7/1/17
f 36/1/18 33/1/18 5/1/18 8/1/18
f 38/1/16 39/1/16 35/1/16 34/1/16
f 39/1/17 40/1/17 36/1/17 35/1/17
f 40/1/18 37/1/18 33/1/18 36/1/18
f 17/1/15 18/1/15 38/1/15 37/1/15
f 18/1/16 19/1/16 39/1/16 38/1/16
f 19/1/17 20/1/17 40/1/17 39/1/17
f 20/1/18 17/1/18 37/1/18 40/1/18
f 41/2/19 42/3/19 43/4/19
f 42/3/20 41/5/20 46/6/20
f 41/7/21 43/8/21 44/9/21
f 41/10/22 44/9/22 45/11/22
f 41/12/23 45/11/23 46/6/23
f 42/3/24 46/6/24 51/13/24
f 43/4/25 42/3/25 47/14/25
f 44/9/26 43/8/26 48/15/26
f 45/11/27 44/9/27 49/16/27
f 46/6/28 45/11/28 50/17/28
f 42/3/29 51/13/29 47/14/29
f 43/4/30 47/14/30 48/18/30
f 44/9/31 48/15/31 49/16/31
f 45/11/32 49/16/32 50/17/32
f 46/6/33 50/17/33 51/13/33
f 47/14/34 51/13/34 52/19/34
f 48/18/35 47/14/35 52/20/35
f 49/16/36 48/15/36 52/21/36
f 50/17/37 49/16/37 52/22/37
f 51/13/38 50/17/38 52/23/38
f 53/2/39 54/3/39 55/4/39
f 54/3/40 53/5/40 58/6/40
f 53/7/41 55/8/41 56/9/41
f 53/10/42 56/9/42 57/11/42
f 53/12/43 57/11/43 58/6/43
f 54/3/44 58/6/44 63/13/44
f 55/4/45 54/3/45 59/14/45
f 56/9/46 55/8/46 60/15/46
f 57/11/47 56/9/47 61/16/47
f 58/6/48 57/11/48 62/17/48
f 54/3/49 63/13/49 59/14/49
f 55/4/50 59/14/50 60/18/50
f 56/9/51 60/15/51 61/16/51
f 57/11/52 61/16/52 62/17/52
f 58/6/53 62/17/53 63/13/53
f 59/14/54 63/13/54 64/19/54
f 60/18/55 59/14/55 64/20/55
f 61/16/56 60/15/56 64/21/56
f 62/17/57 61/16/57 64/22/57
f 63/13/58 62/17/58 64/23/58
f 65/2/59 66/3/59 67/4/59
f 66/3/60 65/5/60 70/6/60
f 65/7/61 67/8/61 68/9/61
f 65/10/62 68/9/62 69/11/62
f 65/12/63 69/11/63 70/6/63
f 66/3/64 70/6/64 75/13/64
f 67/4/65 66/3/65 71/14/65
f 68/9/66 67/8/66 72/15/66
f 69/11/67 68/9/67 73/16/67
f 70/6/68 69/11/68 74/17/68
f 66/3/69 75/13/69 71/14/69
f 67/4/70 71/14/70 72/18/70
f 68/9/71 72/15/71 73/16/71
f 69/11/72 73/16/72 74/17/72
f 70/6/73 74/17/73 75/13/73
f 71/14/74 75/13/74 76/19/74
f 72/18/75 71/14/75 76/20/75
f 73/16/76 72/15/76 76/21/76
f 74/17/77 73/16/77 76/22/77
f 75/13/78 74/17/78 76/23/78
f 77/2/79 78/3/79 79/4/79
f 78/3/80 77/5/80 82/6/80
f 77/7/81 79/8/81 80/9/81
f 77/10/82 80/9/82 81/11/82
f 77/12/83 81/11/83 82/6/83
f 78/3/84 82/6/84 87/13/84
f 79/4/85 78/3/85 83/14/85
f 80/9/86 79/8/86 84/15/86
f 81/11/87 80/9/87 85/16/87
f 82/6/88 81/11/88 86/17/88
f 78/3/89 87/13/89 83/14/89
f 79/4/90 83/14/90 84/18/90
f 80/9/91 84/15/91 85/16/91
f 81/11/92 85/16/92 86/17/92
f 82/6/93 86/17/93 87/13/93
f 83/14/94 87/13/94 88/19/94
f 84/18/95 83/14/95 88/20/95
f 85/16/96 84/15/96 88/21/96
f 86/17/97 85/16/97 88/22/97
f 87/13/98 86/17/98 88/23/98
f 89/2/99 90/3/99 91/4/99
f 90/3/100 89/5/100 94/6/100
f 89/7/101 91/8/101 92/9/101
f 89/10/102 92/9/102 93/11/102
f 89/12/103 93/11/103 94/6/103
f 90/3/104 94/6/104 99/13/104
f 91/4/105 90/3/105 95/14/105
f 92/9/106 91/8/106 96/15/106
f 93/11/107 92/9/107 97/16/107
f 94/6/108 93/11/108 98/17/108
f 90/3/109 99/13/109 95/14/109
f 91/4/110 95/14/110 96/18/110
f 92/9/111 96/15/111 97/16/111
f 93/11/112 97/16/112 98/17/112
f 94/6/113 98/17/113 99/13/113
f 95/14/114 99/13/114 100/19/114
f 96/18/115 95/14/115 100/20/115
f 97/16/116 96/15/116 100/21/116
f 98/17/117 97/16/117 100/22/117
f 99/13/118 98/17/118 100/23/118
f 101/2/119 102/3/119 103/4/119
f 102/3/120 101/5/120 106/6/120
f 101/7/121 103/8/121 104/9/121
f 101/10/122 104/9/122 105/11/122
f 101/12/123 105/11/123 106/6/123
f 102/3/124 106/6/124 111/13/124
f 103/4/125 102/3/125 107/14/125
f 104/9/126 103/8/126 108/15/126
f 105/11/127 104/9/127 109/16/127
f 106/6/128 105/11/128 110/17/128
f 102/3/129 111/13/129 107/14/129
f 103/4/130 107/14/130 108/18/130
f 104/9/131 108/15/131 109/16/131
f 105/11/132 109/16/132 110/17/132
f 106/6/133 110/17/133 111/13/133
f 107/14/134 111/13/134 112/19/134
f 108/18/135 107/14/135 112/20/135
f 109/16/136 108/15/136 112/21/136
f 110/17/137 109/16/137 112/22/137
f 111/13/138 110/17/138 112/23/138
f 113/2/139 114/3/139 115/4/139
f 114/3/140 113/5/140 118/6/140
f 113/7/141 115/8/141 116/9/141
f 113/10/142 116/9/142 117/11/142
f 113/12/143 117/11/143 118/6/143
f 114/3/144 118/6/144 123/13/144
f 115/4/145 114/3/145 119/14/145
f 116/9/146 115/8/146 120/15/146
f 117/11/147 116/9/147 121/16/147
f 118/6/148 117/11/148 122/17/148
f 114/3/149 123/13/149 119/14/149
f 115/4/150 119/14/150 120/18/150
f 116/9/151 120/15/151 121/16/151
f 117/11/152 121/16/152 122/17/152
f 118/6/153 122/17/153 123/13/153
f 119/14/154 123/13/154 124/19/154
f 120/18/155 119/14/155 124/20/155
f 121/16/156 120/15/156 124/21/156
f 122/17/157 121/16/157 124/22/157
f 123/13/158 122/17/158 124/23/158
f 125/2/159 126/3/159 127/4/159
f 126/3/160 125/5/160 130/6/160
f 125/7/161 127/8/161 128/9/161
f 125/10/162 128/9/162 129/11/162
f 125/12/163 129/11/163 130/6/163
f 126/3/164 130/6/164 135/13/164
f 127/4/165 126/3/165 131/14/165
f 128/9/166 127/8/166 132/15/166
f 129/11/167 128/9/167 133/16/167
f 130/6/168 129/11/168 134/17/168
f 126/3/169 135/13/169 131/14/169
f 127/4/170 131/14/170 132/18/170
f 128/9/171 132/15/171 133/16/171
f 129/11/172 133/16/172 134/17/172
f 130/6/173 134/17/173 135/13/173
f 131/14/174 135/13/174 136/19/174
f 132/18/175 131/14/175 136/20/175
f 133/16/176 132/15/176 136/21/176
f 134/17/177 133/16/177 136/22/177
f 135/13/178 134/17/178 136/23/178
f 137/2/179 138/3/179 139/4/179
f 138/3/180 137/5/180 142/6/180
f 137/7/181 139/8/181 140/9/181
f 137/10/182 140/9/182 141/11/182
f 137/12/183 141/11/183 142/6/183
f 138/3/184 142/6/184 147/13/184
f 139/4/185 138/3/185 143/14/185
f 140/9/186 139/8/186 144/15/186
f 141/11/187 140/9/187 145/16/187
f 142/6/188 141/11/188 146/17/188
f 138/3/189 147/13/189 143/14/189
f 139/4/190 143/14/190 144/18/190
f 140/9/191 144/15/191 145/16/191
f 141/11/192 145/16/192 146/17/192
f 142/6/193 146/17/193 147/13/193
f 143/14/194 147/13/194 148/19/194
f 144/18/195 143/14/195 148/20/195
f 145/16/196 144/15/196 148/21/196
f 146/17/197 145/16/197 148/22/197
f 147/13/198 146/17/198 148/23/198
f 149/2/199 150/3/199 151/4/199
f 150/3/200 149/5/200 154/6/200
f 149/7/201 151/8/201 152/9/201
f 149/10/202 152/9/202 153/11/202
f 149/12/203 153/11/203 154/6/203
f 150/3/204 154/6/204 159/13/204
f 151/4/205 150/3/205 155/14/205
f 152/9/206 151/8/206 156/15/206
f 153/11/207 152/9/207 157/16/207
f 154/6/208 153/11/208 158/17/208
f 150/3/209 159/13/209 155/14/209
f 151/4/210 155/14/210 156/18/210
f 152/9/211 156/15/211 157/16/211
f 153/11/212 157/16/212 158/17/212
f 154/6/213 158/17/213 159/13/213
f 155/14/214 159/13/214 160/19/214
f 156/18/215 155/14/215 160/20/215
f 157/16/216 156/15/216 160/21/216
f 158/17/217 157/16/217 160/22/217
f 159/13/218 158/17/218 160/23/218
f 161/2/219 162/3/219 163/4/219
f 162/3/220 161/5/220 166/6/220
f 161/7/221 163/8/221 164/9/221
f 161/10/222 164/9/222 165/11/222
f 161/12/223 165/11/223 166/6/223
f 162/3/224 166/6/224 171/13/224
f 163/4/225 162/3/225 167/14/225
f 164/9/226 163/8/226 168/15/226
f 165/11/227 164/9/227 169/16/227
f 166/6/228 165/11/228 170/17/228
f 162/3/229 171/13/229 167/14/229
f 163/4/230 167/14/230 168/18/230
f 164/9/231 168/15/231 169/16/231
f 165/11/232 169/16/232 170/17/232
f 166/6/233 170/17/233 171/13/233
f 167/14/234 171/13/234 172/19/234
f 168/18/235 167/14/235 172/20/235
f 169/16/236 168/15/236 172/21/236
f 170/17/237 169/16/237 172/22/237
f 171/13/238 170/17/238 172/23/238
f 173/2/239 174/3/239 175/4/239
f 174/3/240 173/5/240 178/6/240
f 173/7/241 175/8/241 176/9/241
f 173/10/242 176/9/242 177/11/242
f 173/12/243 177/11/243 178/6/243
f 174/3/244 178/6/244 183/13/244
f 175/4/245 174/3/245 179/14/245
f 176/9/246 175/8/246 180/15/246
f 177/11/247 176/9/247 181/16/247
f 178/6/248 177/11/248 182/17/248
f 174/3/249 183/13/249 179/14/249
f 175/4/250 179/14/250 180/18/250
f 176/9/251 180/15/251 181/16/251
f 177/11/252 181/16/252 182/17/252
f 178/6/253 182/17/253 183/13/253
f 179/14/254 183/13/254 184/19/254
f 180/18/255 179/14/255 184/20/255
f 181/16/256 180/15/256 184/21/256
f 182/17/257 181/16/257 184/22/257
f 183/13/258 182/17/258 184/23/258
f 185/2/259 186/3/259 187/4/259
f 186/3/260 185/5/260 190/6/260
f 185/7/261 187/8/261 188/9/261
f 185/10/262 188/9/262 189/11/262
f 185/12/263 189/11/263 190/6/263
f 186/3/264 190/6/264 195/13/264
f 187/4/265 186/3/265 191/14/265
f 188/9/266 187/8/266 192/15/266
f 189/11/267 188/9/267 193/16/267
f 190/6/268 189/11/268 194/17/268
f 186/3/269 195/13/269 191/14/269
f 187/4/270 191/14/270 192/18/270
f 188/9/271 192/15/271 193/16/271
f 189/11/272 193/16/272 194/17/272
f 190/6/273 194/17/273 195/13/273
f 191/14/274 195/13/274 196/19/274
f 192/18/275 191/14/275 196/20/275
f 193/16/276 192/15/276 196/21/276
f 194/17/277 193/16/277 196/22/277
f 195/13/278 194/17/278 196/23/278
f 25/1/10 26/1/10 14/1/10 13/1/10
